<?xml version="1.0" encoding="utf-8"?>
<!-- Generator: Adobe Illustrator 24.3.0, SVG Export Plug-In . SVG Version: 6.00 Build 0)  -->
<svg version="1.1" id="Capa_1" xmlns="http://www.w3.org/2000/svg" xmlns:xlink="http://www.w3.org/1999/xlink" x="0px" y="0px"
	 viewBox="0 0 600 200" style="enable-background:new 0 0 600 200;" xml:space="preserve">
<style type="text/css">
	.st0{fill:#014969;}
	.st1{fill:#014969;stroke:#014969;stroke-width:0.75;stroke-miterlimit:10;}
	.st2{fill:#014969;stroke:#014969;stroke-width:1.5;stroke-miterlimit:10;}
	.st3{fill:none;stroke:#E6007E;stroke-miterlimit:10;}
</style>
<g>
	<g>
		<g>
			<path class="st0" d="M167.17,139.59c-13.04-16.93-32.81-27.28-54.33-27.3c-21.5-0.02-41.3,10.39-54.33,27.3
				c-2.06,2.67,2.5,5.29,4.53,2.65c24.94-32.37,74.64-32.37,99.58,0C164.67,144.88,169.23,142.26,167.17,139.59L167.17,139.59z"/>
		</g>
	</g>
	<g>
		<g>
			<path class="st0" d="M146.2,125.59c9.45-5.23,18.88-7.7,29.65-8.05c-0.84-1.11-1.69-2.22-2.53-3.32
				c-5.89,31.37-34.76,53.71-66.75,50.54c-31.55-3.12-55.79-31.07-55.05-62.62c0.23-9.64,2.77-19.22,7.39-27.68
				c2.36-4.33,5.22-8.37,8.54-12.01c1.48-1.62,3.05-3.17,4.69-4.64c1.44-1.29,3.99-4.19,5.8-4.72c-1.08-0.61-2.15-1.22-3.23-1.83
				c4.54,17.3-6.6,34.84-24.61,37.06c-3.31,0.41-3.35,5.66,0,5.25c21.37-2.64,35.15-22.81,29.67-43.71
				c-0.35-1.35-1.88-2.23-3.23-1.83c-3.15,0.93-6.88,4.89-9.2,7.06c-3.38,3.16-6.41,6.69-9.08,10.47
				c-5.27,7.48-8.98,16.15-10.74,25.13c-3.36,17.2,0.12,35.42,9.91,49.99c19.45,28.95,59.32,38.27,89.41,20.32
				c16.52-9.85,27.99-26.52,31.53-45.39c0.3-1.61-0.71-3.38-2.53-3.32c-11.67,0.38-22.07,3.1-32.3,8.77
				C140.59,122.69,143.24,127.23,146.2,125.59L146.2,125.59z"/>
		</g>
	</g>
	<g>
		<g>
			<path class="st0" d="M46.24,32.31c0,11.48,0,22.97,0,34.45c0,1.83,2.29,3.48,3.95,2.27c13.5-9.94,13.51-29.05,0-38.99
				c-2.72-2-5.35,2.55-2.65,4.53c10.17,7.48,10.17,22.43,0,29.92c1.32,0.76,2.63,1.51,3.95,2.27c0-11.48,0-22.97,0-34.45
				C51.49,28.93,46.24,28.92,46.24,32.31z"/>
		</g>
	</g>
	<g>
		<g>
			<path class="st0" d="M126.81,115.9c0-21.56,0-43.12,0-64.68c-0.88,0.88-1.75,1.75-2.62,2.62c14.01,0,28.03,0,42.04,0
				c-0.88-0.88-1.75-1.75-2.62-2.62c0,21.52,0,43.04,0,64.57c0,3.38,5.25,3.38,5.25,0c0-21.52,0-43.04,0-64.57
				c0-1.42-1.2-2.62-2.62-2.62c-14.01,0-28.03,0-42.04,0c-1.42,0-2.62,1.2-2.62,2.62c0,21.56,0,43.12,0,64.68
				C121.56,119.28,126.81,119.28,126.81,115.9L126.81,115.9z"/>
		</g>
	</g>
	<g>
		<g>
			<path class="st0" d="M104.4,115.85c0-12.47,0-24.94,0-37.42c-0.88,0.88-1.75,1.75-2.62,2.62c7.47,0,14.94,0,22.41,0
				c3.38,0,3.38-5.25,0-5.25c-7.47,0-14.94,0-22.41,0c-1.42,0-2.62,1.2-2.62,2.62c0,12.47,0,24.94,0,37.42
				C99.15,119.23,104.4,119.24,104.4,115.85L104.4,115.85z"/>
		</g>
	</g>
	<g>
		<g>
			<path class="st0" d="M134.14,68.49c7.38,0,14.76,0,22.14,0c3.38,0,3.38-5.25,0-5.25c-7.38,0-14.76,0-22.14,0
				C130.76,63.24,130.75,68.49,134.14,68.49L134.14,68.49z"/>
		</g>
	</g>
	<g>
		<g>
			<path class="st0" d="M134.14,81.06c7.38,0,14.76,0,22.14,0c3.38,0,3.38-5.25,0-5.25c-7.38,0-14.76,0-22.14,0
				C130.76,75.81,130.75,81.06,134.14,81.06L134.14,81.06z"/>
		</g>
	</g>
	<g>
		<g>
			<path class="st0" d="M134.14,93.41c7.38,0,14.76,0,22.14,0c3.38,0,3.38-5.25,0-5.25c-7.38,0-14.76,0-22.14,0
				C130.76,88.16,130.75,93.41,134.14,93.41L134.14,93.41z"/>
		</g>
	</g>
	<g>
		<g>
			<path class="st0" d="M134.14,105.76c7.38,0,14.76,0,22.14,0c3.38,0,3.38-5.25,0-5.25c-7.38,0-14.76,0-22.14,0
				C130.76,100.51,130.75,105.76,134.14,105.76L134.14,105.76z"/>
		</g>
	</g>
	<g>
		<g>
			<path class="st0" d="M110.54,93.41c4.55,0,9.1,0,13.65,0c3.38,0,3.38-5.25,0-5.25c-4.55,0-9.1,0-13.65,0
				C107.16,88.16,107.15,93.41,110.54,93.41L110.54,93.41z"/>
		</g>
	</g>
	<g>
		<g>
			<path class="st0" d="M110.54,105.76c4.55,0,9.1,0,13.65,0c3.38,0,3.38-5.25,0-5.25c-4.55,0-9.1,0-13.65,0
				C107.16,100.51,107.15,105.76,110.54,105.76L110.54,105.76z"/>
		</g>
	</g>
	<g>
		<g>
			<path class="st0" d="M56.62,107.81c13.27,2.35,26.04-3.69,31.83-16.04c0.65-1.39,0.24-3.54-1.57-3.86
				c-13.27-2.35-26.04,3.69-31.83,16.04c-1.43,3.04,3.1,5.71,4.53,2.65c4.73-10.1,14.83-15.59,25.9-13.63
				c-0.52-1.29-1.05-2.57-1.57-3.86c-4.73,10.1-14.83,15.59-25.9,13.63C54.71,102.16,53.29,107.22,56.62,107.81z"/>
		</g>
	</g>
</g>
<g>
	<path class="st1" d="M276.31,127.71c0,0.21-0.07,0.39-0.22,0.54c-0.14,0.14-0.34,0.22-0.58,0.22c-0.31,0-0.55-0.13-0.72-0.4
		l-2.75-4.42h-0.29h-2.05v3.98c0,0.23-0.08,0.43-0.23,0.59c-0.15,0.16-0.35,0.24-0.6,0.24c-0.23,0-0.43-0.08-0.59-0.24
		c-0.16-0.16-0.24-0.36-0.24-0.59v-10.83c0-0.25,0.08-0.45,0.24-0.6c0.16-0.16,0.36-0.23,0.59-0.23h2.88c0.79,0,1.5,0.17,2.12,0.5
		c0.62,0.33,1.11,0.79,1.46,1.39c0.35,0.6,0.52,1.28,0.52,2.05c0,0.76-0.19,1.43-0.58,2.02s-0.91,1.03-1.57,1.33l2.45,3.94
		C276.25,127.35,276.31,127.52,276.31,127.71z M271.75,122.11c0.73,0,1.32-0.21,1.79-0.62c0.47-0.41,0.7-0.94,0.7-1.59
		c0-0.7-0.23-1.28-0.7-1.73c-0.47-0.45-1.07-0.67-1.79-0.67h-2.05v4.61H271.75z"/>
	<path class="st1" d="M281.59,128.22c-0.16-0.16-0.24-0.36-0.24-0.59v-10.83c0-0.25,0.08-0.45,0.24-0.6
		c0.16-0.16,0.36-0.23,0.59-0.23h7.23c0.25,0,0.44,0.07,0.59,0.22c0.15,0.14,0.22,0.33,0.22,0.57c0,0.22-0.07,0.41-0.22,0.54
		s-0.35,0.21-0.59,0.21h-6.4v3.89h4.59c0.23,0,0.43,0.07,0.58,0.22c0.15,0.14,0.23,0.33,0.23,0.55c0,0.22-0.08,0.41-0.23,0.55
		c-0.15,0.14-0.35,0.22-0.58,0.22h-4.59v4h6.4c0.25,0,0.44,0.07,0.59,0.21s0.22,0.32,0.22,0.54c0,0.24-0.07,0.42-0.22,0.57
		c-0.15,0.14-0.35,0.22-0.59,0.22h-7.23C281.94,128.46,281.75,128.38,281.59,128.22z"/>
	<path class="st1" d="M305.29,122.21c0.15,0.16,0.23,0.35,0.23,0.6v3.82c0,0.26-0.09,0.45-0.26,0.59c-1.12,0.93-2.43,1.39-3.92,1.39
		c-1.14,0-2.18-0.28-3.13-0.85c-0.94-0.56-1.69-1.34-2.23-2.32s-0.82-2.06-0.82-3.25c0-1.17,0.27-2.25,0.82-3.22
		c0.54-0.98,1.29-1.75,2.23-2.32c0.94-0.57,1.99-0.86,3.13-0.86c0.81,0,1.51,0.11,2.1,0.32c0.59,0.21,1.19,0.57,1.8,1.06
		c0.13,0.1,0.21,0.2,0.26,0.3c0.04,0.1,0.06,0.22,0.06,0.36c0,0.21-0.08,0.39-0.23,0.53s-0.34,0.21-0.55,0.21
		c-0.19,0-0.37-0.07-0.54-0.21c-0.44-0.37-0.86-0.64-1.28-0.81c-0.42-0.17-0.95-0.25-1.62-0.25c-0.83,0-1.6,0.22-2.3,0.66
		s-1.25,1.03-1.66,1.78c-0.41,0.75-0.62,1.57-0.62,2.46c0,0.9,0.21,1.72,0.62,2.46c0.41,0.75,0.96,1.34,1.66,1.78
		s1.46,0.66,2.3,0.66c0.9,0,1.75-0.27,2.58-0.8v-2.85h-2.21c-0.25,0-0.45-0.07-0.6-0.21c-0.15-0.14-0.23-0.31-0.23-0.53
		c0-0.21,0.08-0.39,0.23-0.53c0.15-0.14,0.35-0.21,0.6-0.21h2.99C304.94,121.98,305.14,122.06,305.29,122.21z"/>
	<path class="st1" d="M320.8,127.64c0,0.22-0.08,0.42-0.24,0.58c-0.16,0.16-0.36,0.24-0.59,0.24c-0.16,0-0.31-0.04-0.46-0.14
		s-0.25-0.22-0.31-0.38l-0.9-2.24h-5.74l-0.91,2.24c-0.07,0.16-0.18,0.29-0.32,0.38s-0.29,0.14-0.45,0.14
		c-0.23,0-0.43-0.08-0.58-0.25c-0.15-0.17-0.23-0.36-0.23-0.58c0-0.11,0.03-0.23,0.08-0.37l4.5-10.74c0.16-0.37,0.42-0.56,0.78-0.56
		c0.38,0,0.65,0.19,0.78,0.56l4.51,10.77C320.78,127.43,320.8,127.55,320.8,127.64z M313.12,124.33h4.62l-2.29-5.7L313.12,124.33z"
		/>
	<path class="st1" d="M326.06,128.22c-0.15-0.16-0.23-0.36-0.23-0.59v-10.83c0-0.23,0.08-0.43,0.24-0.59
		c0.16-0.16,0.35-0.24,0.58-0.24c0.23,0,0.43,0.08,0.59,0.24c0.16,0.16,0.24,0.36,0.24,0.59v10h5.79c0.23,0,0.43,0.08,0.59,0.24
		c0.16,0.16,0.24,0.36,0.24,0.59s-0.08,0.43-0.24,0.59c-0.16,0.16-0.36,0.24-0.59,0.24h-6.62
		C326.41,128.46,326.21,128.38,326.06,128.22z"/>
	<path class="st1" d="M348.72,127.64c0,0.22-0.08,0.42-0.24,0.58c-0.16,0.16-0.36,0.24-0.59,0.24c-0.16,0-0.31-0.04-0.46-0.14
		s-0.25-0.22-0.31-0.38l-0.9-2.24h-5.74l-0.91,2.24c-0.07,0.16-0.18,0.29-0.32,0.38s-0.29,0.14-0.45,0.14
		c-0.23,0-0.43-0.08-0.58-0.25c-0.15-0.17-0.23-0.36-0.23-0.58c0-0.11,0.03-0.23,0.08-0.37l4.5-10.74c0.16-0.37,0.42-0.56,0.78-0.56
		c0.38,0,0.65,0.19,0.78,0.56l4.51,10.77C348.7,127.43,348.72,127.55,348.72,127.64z M341.04,124.33h4.62l-2.29-5.7L341.04,124.33z"
		/>
	<path class="st1" d="M361.87,128.22c-0.16-0.16-0.24-0.36-0.24-0.59v-10.83c0-0.25,0.08-0.45,0.24-0.6
		c0.16-0.16,0.36-0.23,0.59-0.23h3.82c0.71,0,1.35,0.14,1.9,0.42c0.55,0.28,0.99,0.68,1.3,1.18s0.47,1.08,0.47,1.72
		c0,0.52-0.14,0.99-0.42,1.41c-0.28,0.42-0.67,0.75-1.16,1.01c0.73,0.17,1.3,0.51,1.71,1.02c0.42,0.51,0.62,1.16,0.62,1.95
		c0,0.73-0.17,1.38-0.52,1.95s-0.83,1.02-1.46,1.34c-0.62,0.32-1.33,0.48-2.12,0.48h-4.16
		C362.23,128.46,362.03,128.38,361.87,128.22z M366.29,121.1c0.63,0,1.13-0.15,1.51-0.46c0.38-0.31,0.57-0.76,0.57-1.34
		s-0.19-1.03-0.57-1.34c-0.38-0.3-0.88-0.46-1.51-0.46h-2.99v3.6H366.29z M366.63,126.92c0.75,0,1.35-0.19,1.81-0.58
		c0.46-0.39,0.69-0.94,0.69-1.66c0-0.66-0.23-1.17-0.68-1.52c-0.45-0.35-1.06-0.53-1.82-0.53h-3.33v4.29H366.63z"/>
	<path class="st1" d="M376.64,128.22c-0.16-0.16-0.24-0.36-0.24-0.59v-10.83c0-0.25,0.08-0.45,0.24-0.6
		c0.16-0.16,0.36-0.23,0.59-0.23c0.25,0,0.45,0.08,0.6,0.23c0.15,0.15,0.23,0.35,0.23,0.6v10.83c0,0.23-0.08,0.43-0.23,0.59
		c-0.15,0.16-0.35,0.24-0.6,0.24C377,128.46,376.8,128.38,376.64,128.22z"/>
	<path class="st1" d="M384.71,128.22c-0.16-0.16-0.24-0.36-0.24-0.59v-10.83c0-0.25,0.08-0.45,0.24-0.6
		c0.16-0.16,0.36-0.23,0.59-0.23h7.23c0.25,0,0.44,0.07,0.59,0.22c0.15,0.14,0.22,0.33,0.22,0.57c0,0.22-0.07,0.41-0.22,0.54
		s-0.35,0.21-0.59,0.21h-6.4v3.89h4.59c0.23,0,0.43,0.07,0.58,0.22c0.15,0.14,0.23,0.33,0.23,0.55c0,0.22-0.08,0.41-0.23,0.55
		c-0.15,0.14-0.35,0.22-0.58,0.22h-4.59v4h6.4c0.25,0,0.44,0.07,0.59,0.21s0.22,0.32,0.22,0.54c0,0.24-0.07,0.42-0.22,0.57
		c-0.15,0.14-0.35,0.22-0.59,0.22h-7.23C385.06,128.46,384.87,128.38,384.71,128.22z"/>
	<path class="st1" d="M399.1,128.23c-0.15-0.15-0.23-0.35-0.23-0.6v-10.83c0-0.25,0.08-0.45,0.23-0.6c0.15-0.16,0.35-0.23,0.58-0.23
		c0.12,0,0.23,0.03,0.35,0.09c0.12,0.06,0.21,0.13,0.29,0.22l6.98,9.28v-8.75c0-0.25,0.08-0.45,0.24-0.6
		c0.16-0.16,0.36-0.23,0.59-0.23c0.23,0,0.43,0.08,0.58,0.23c0.15,0.15,0.23,0.35,0.23,0.6v10.83c0,0.25-0.08,0.45-0.23,0.6
		c-0.15,0.16-0.35,0.23-0.58,0.23c-0.12,0-0.24-0.02-0.36-0.07s-0.22-0.12-0.28-0.22l-6.98-9.28v8.74c0,0.23-0.08,0.43-0.23,0.59
		c-0.15,0.16-0.35,0.24-0.6,0.24C399.45,128.46,399.25,128.38,399.1,128.23z"/>
	<path class="st1" d="M415.59,128.22c-0.16-0.16-0.24-0.36-0.24-0.59v-10.83c0-0.25,0.08-0.45,0.24-0.6
		c0.16-0.16,0.36-0.23,0.59-0.23h7.23c0.25,0,0.44,0.07,0.59,0.22c0.15,0.14,0.22,0.33,0.22,0.57c0,0.22-0.07,0.41-0.22,0.54
		s-0.35,0.21-0.59,0.21h-6.4v3.89h4.59c0.23,0,0.43,0.07,0.58,0.22c0.15,0.14,0.23,0.33,0.23,0.55c0,0.22-0.08,0.41-0.23,0.55
		c-0.15,0.14-0.35,0.22-0.58,0.22h-4.59v4h6.4c0.25,0,0.44,0.07,0.59,0.21s0.22,0.32,0.22,0.54c0,0.24-0.07,0.42-0.22,0.57
		c-0.15,0.14-0.35,0.22-0.59,0.22h-7.23C415.94,128.46,415.75,128.38,415.59,128.22z"/>
	<path class="st1" d="M430.89,127.91c-0.85-0.47-1.43-1.08-1.75-1.84c-0.05-0.13-0.08-0.23-0.08-0.32c0-0.16,0.06-0.3,0.18-0.42
		s0.28-0.21,0.48-0.25c0.03-0.01,0.09-0.02,0.16-0.02c0.17,0,0.33,0.05,0.49,0.15c0.15,0.1,0.27,0.24,0.34,0.41
		c0.19,0.42,0.57,0.77,1.14,1.06s1.19,0.43,1.87,0.43c0.8,0,1.48-0.18,2.03-0.55c0.55-0.37,0.83-0.87,0.83-1.51
		c0-0.61-0.23-1.13-0.7-1.56c-0.47-0.43-1.18-0.7-2.14-0.79c-1.32-0.13-2.36-0.51-3.12-1.16s-1.14-1.45-1.14-2.42
		c0-0.68,0.19-1.27,0.58-1.77c0.39-0.5,0.92-0.87,1.6-1.14c0.68-0.26,1.44-0.39,2.28-0.39c0.92,0,1.69,0.19,2.32,0.56
		c0.63,0.37,1.16,0.91,1.6,1.6c0.13,0.2,0.19,0.4,0.19,0.58c0,0.24-0.11,0.43-0.32,0.58c-0.12,0.08-0.26,0.11-0.42,0.11
		s-0.31-0.04-0.45-0.12c-0.14-0.08-0.25-0.19-0.32-0.33c-0.29-0.48-0.65-0.84-1.08-1.1c-0.43-0.25-0.98-0.38-1.64-0.38
		c-0.81,0-1.47,0.16-1.97,0.47s-0.75,0.77-0.75,1.37c0,0.55,0.22,1.02,0.67,1.39c0.45,0.37,1.25,0.62,2.4,0.74
		c1.28,0.13,2.27,0.51,2.98,1.16c0.7,0.65,1.06,1.5,1.06,2.55c0,0.77-0.21,1.43-0.62,1.98c-0.42,0.55-0.97,0.96-1.66,1.23
		c-0.69,0.27-1.43,0.41-2.22,0.41C432.68,128.62,431.74,128.38,430.89,127.91z"/>
	<path class="st1" d="M451.83,116.18c0.14,0.14,0.22,0.33,0.22,0.55c0,0.22-0.07,0.41-0.22,0.55c-0.14,0.14-0.33,0.22-0.55,0.22
		h-3.44v10.13c0,0.23-0.08,0.43-0.24,0.59c-0.16,0.16-0.36,0.24-0.59,0.24c-0.23,0-0.43-0.08-0.59-0.24
		c-0.16-0.16-0.24-0.36-0.24-0.59V117.5h-3.46c-0.22,0-0.41-0.07-0.55-0.22c-0.14-0.14-0.22-0.33-0.22-0.55
		c0-0.22,0.07-0.41,0.22-0.55c0.14-0.14,0.33-0.22,0.55-0.22h8.56C451.51,115.96,451.69,116.03,451.83,116.18z"/>
	<path class="st1" d="M465.23,127.64c0,0.22-0.08,0.42-0.24,0.58c-0.16,0.16-0.36,0.24-0.59,0.24c-0.16,0-0.31-0.04-0.46-0.14
		s-0.25-0.22-0.31-0.38l-0.9-2.24h-5.74l-0.91,2.24c-0.07,0.16-0.18,0.29-0.32,0.38s-0.29,0.14-0.45,0.14
		c-0.23,0-0.43-0.08-0.58-0.25c-0.15-0.17-0.23-0.36-0.23-0.58c0-0.11,0.03-0.23,0.08-0.37l4.5-10.74c0.16-0.37,0.42-0.56,0.78-0.56
		c0.38,0,0.65,0.19,0.78,0.56l4.51,10.77C465.21,127.43,465.23,127.55,465.23,127.64z M457.55,124.33h4.62l-2.29-5.7L457.55,124.33z
		"/>
	<path class="st1" d="M478.53,127.71c0,0.21-0.07,0.39-0.22,0.54c-0.14,0.14-0.34,0.22-0.58,0.22c-0.31,0-0.55-0.13-0.72-0.4
		l-2.75-4.42h-0.29h-2.05v3.98c0,0.23-0.08,0.43-0.23,0.59c-0.15,0.16-0.35,0.24-0.6,0.24c-0.23,0-0.43-0.08-0.59-0.24
		c-0.16-0.16-0.24-0.36-0.24-0.59v-10.83c0-0.25,0.08-0.45,0.24-0.6c0.16-0.16,0.36-0.23,0.59-0.23h2.88c0.79,0,1.5,0.17,2.12,0.5
		c0.62,0.33,1.11,0.79,1.46,1.39c0.35,0.6,0.52,1.28,0.52,2.05c0,0.76-0.19,1.43-0.58,2.02s-0.91,1.03-1.57,1.33l2.45,3.94
		C478.48,127.35,478.53,127.52,478.53,127.71z M473.97,122.11c0.73,0,1.32-0.21,1.79-0.62c0.47-0.41,0.7-0.94,0.7-1.59
		c0-0.7-0.23-1.28-0.7-1.73c-0.47-0.45-1.07-0.67-1.79-0.67h-2.05v4.61H473.97z"/>
</g>
<g>
	<path class="st1" d="M218.3,89.04c0.31,0.31,0.47,0.72,0.47,1.22v7.77c0,0.52-0.17,0.92-0.52,1.2c-2.27,1.88-4.93,2.83-7.96,2.83
		c-2.32,0-4.44-0.57-6.35-1.72c-1.92-1.15-3.43-2.72-4.53-4.71c-1.1-1.99-1.66-4.19-1.66-6.6c0-2.38,0.55-4.56,1.66-6.55
		c1.1-1.98,2.62-3.55,4.53-4.71c1.92-1.16,4.03-1.74,6.35-1.74c1.65,0,3.07,0.22,4.27,0.65c1.2,0.43,2.42,1.15,3.66,2.14
		c0.26,0.19,0.43,0.4,0.52,0.6c0.09,0.21,0.13,0.45,0.13,0.73c0,0.43-0.16,0.79-0.47,1.07c-0.31,0.28-0.69,0.42-1.12,0.42
		c-0.39,0-0.76-0.14-1.1-0.42c-0.89-0.76-1.75-1.3-2.6-1.64c-0.84-0.34-1.94-0.5-3.28-0.5c-1.69,0-3.24,0.44-4.66,1.33
		c-1.42,0.89-2.55,2.1-3.38,3.62c-0.83,1.53-1.25,3.19-1.25,4.99c0,1.82,0.42,3.49,1.25,5c0.83,1.52,1.96,2.72,3.38,3.61
		c1.42,0.89,2.97,1.33,4.66,1.33c1.82,0,3.56-0.54,5.23-1.62v-5.78h-4.48c-0.5,0-0.9-0.14-1.22-0.42c-0.31-0.28-0.47-0.64-0.47-1.07
		c0-0.43,0.16-0.79,0.47-1.07c0.31-0.28,0.72-0.42,1.22-0.42h6.08C217.59,88.57,217.99,88.73,218.3,89.04z"/>
	<path class="st1" d="M244.12,100.07c0,0.46-0.16,0.84-0.49,1.17c-0.33,0.32-0.73,0.49-1.2,0.49c-0.32,0-0.63-0.09-0.93-0.28
		c-0.29-0.18-0.5-0.44-0.63-0.76l-1.82-4.55h-11.66l-1.85,4.55c-0.15,0.32-0.37,0.58-0.65,0.76c-0.28,0.18-0.58,0.28-0.91,0.28
		c-0.48,0-0.87-0.17-1.19-0.5c-0.31-0.34-0.47-0.73-0.47-1.19c0-0.22,0.05-0.47,0.16-0.75l9.13-21.8c0.33-0.76,0.86-1.14,1.59-1.14
		c0.78,0,1.31,0.38,1.59,1.14l9.16,21.87C244.06,99.64,244.12,99.88,244.12,100.07z M228.52,93.35h9.39l-4.65-11.57L228.52,93.35z"
		/>
	<path class="st1" d="M265.43,100.2c0,0.43-0.15,0.8-0.44,1.09c-0.29,0.29-0.69,0.44-1.19,0.44c-0.63,0-1.12-0.27-1.46-0.81
		l-5.59-8.97h-0.58h-4.16v8.09c0,0.48-0.16,0.88-0.47,1.2c-0.31,0.32-0.72,0.49-1.22,0.49c-0.48,0-0.88-0.16-1.2-0.49
		c-0.33-0.33-0.49-0.73-0.49-1.2v-22c0-0.5,0.16-0.9,0.49-1.22c0.32-0.31,0.73-0.47,1.2-0.47h5.85c1.6,0,3.04,0.34,4.31,1.01
		c1.27,0.67,2.25,1.61,2.96,2.83c0.7,1.21,1.06,2.6,1.06,4.16c0,1.54-0.39,2.9-1.17,4.09s-1.84,2.09-3.18,2.7l4.97,7.99
		C265.32,99.48,265.43,99.83,265.43,100.2z M256.17,88.83c1.47,0,2.69-0.42,3.64-1.25c0.95-0.83,1.43-1.91,1.43-3.23
		c0-1.43-0.48-2.6-1.43-3.51c-0.95-0.91-2.17-1.36-3.64-1.36h-4.16v9.36H256.17z"/>
	<path class="st1" d="M270.47,101.24c-0.33-0.33-0.49-0.73-0.49-1.2v-22c0-0.5,0.16-0.9,0.49-1.22c0.32-0.31,0.73-0.47,1.2-0.47
		h5.88c2.45,0,4.62,0.54,6.53,1.62c1.91,1.08,3.39,2.58,4.45,4.5c1.06,1.92,1.59,4.1,1.59,6.55c0,2.45-0.53,4.64-1.59,6.56
		c-1.06,1.93-2.55,3.43-4.45,4.52c-1.91,1.08-4.08,1.62-6.53,1.62h-5.88C271.19,101.73,270.79,101.57,270.47,101.24z M277.55,98.74
		c1.8,0,3.41-0.41,4.83-1.23c1.42-0.82,2.52-1.98,3.31-3.46c0.79-1.48,1.19-3.16,1.19-5.02c0-1.86-0.4-3.53-1.19-5
		c-0.79-1.47-1.9-2.62-3.31-3.44c-1.42-0.82-3.03-1.23-4.83-1.23h-4.19v19.4H277.55z"/>
	<path class="st1" d="M296.72,101.24c-0.33-0.33-0.49-0.73-0.49-1.2v-22c0-0.5,0.16-0.9,0.49-1.22c0.32-0.31,0.73-0.47,1.2-0.47
		h14.69c0.5,0,0.9,0.15,1.2,0.44c0.3,0.29,0.45,0.68,0.45,1.15c0,0.46-0.15,0.82-0.45,1.1c-0.3,0.28-0.7,0.42-1.2,0.42h-13v7.9h9.33
		c0.48,0,0.87,0.15,1.19,0.44c0.31,0.29,0.47,0.67,0.47,1.12c0,0.45-0.16,0.83-0.47,1.12c-0.31,0.29-0.71,0.44-1.19,0.44h-9.33v8.12
		h13c0.5,0,0.9,0.14,1.2,0.42c0.3,0.28,0.45,0.65,0.45,1.1c0,0.48-0.15,0.86-0.45,1.15c-0.3,0.29-0.7,0.44-1.2,0.44h-14.69
		C297.45,101.73,297.05,101.57,296.72,101.24z"/>
	<path class="st1" d="M320.26,101.26c-0.31-0.31-0.47-0.72-0.47-1.22v-22c0-0.5,0.16-0.9,0.47-1.22c0.31-0.31,0.71-0.47,1.19-0.47
		c0.24,0,0.48,0.06,0.71,0.18c0.24,0.12,0.43,0.27,0.58,0.44l14.17,18.85V78.04c0-0.5,0.16-0.9,0.49-1.22
		c0.33-0.31,0.73-0.47,1.2-0.47s0.87,0.16,1.19,0.47c0.31,0.31,0.47,0.72,0.47,1.22v22c0,0.5-0.16,0.9-0.47,1.22
		c-0.31,0.31-0.71,0.47-1.19,0.47c-0.24,0-0.48-0.05-0.73-0.15c-0.25-0.1-0.44-0.24-0.57-0.44L323.14,82.3v17.74
		c0,0.48-0.16,0.88-0.47,1.2c-0.31,0.32-0.72,0.49-1.22,0.49C320.97,101.73,320.58,101.57,320.26,101.26z"/>
	<path class="st1" d="M362.92,100.33c-1.92-1.15-3.43-2.72-4.53-4.71c-1.1-1.99-1.66-4.19-1.66-6.6c0-2.38,0.55-4.56,1.66-6.55
		c1.1-1.98,2.62-3.55,4.53-4.71c1.92-1.16,4.03-1.74,6.35-1.74c1.65,0,3.07,0.22,4.27,0.65c1.2,0.43,2.42,1.15,3.66,2.14
		c0.26,0.19,0.43,0.4,0.52,0.6c0.09,0.21,0.13,0.45,0.13,0.73c0,0.43-0.16,0.79-0.47,1.07c-0.31,0.28-0.68,0.42-1.09,0.42
		c-0.41,0-0.79-0.14-1.14-0.42c-0.89-0.76-1.75-1.3-2.6-1.64c-0.84-0.34-1.94-0.5-3.28-0.5c-1.69,0-3.24,0.44-4.66,1.33
		c-1.42,0.89-2.55,2.1-3.38,3.62c-0.83,1.53-1.25,3.19-1.25,4.99c0,1.82,0.42,3.49,1.25,5c0.83,1.52,1.96,2.72,3.38,3.61
		c1.42,0.89,2.97,1.33,4.66,1.33c2.08,0,4.07-0.71,5.98-2.14c0.37-0.26,0.73-0.39,1.07-0.39c0.41,0,0.75,0.15,1.02,0.44
		c0.27,0.29,0.41,0.68,0.41,1.15c0,0.46-0.17,0.86-0.52,1.2c-2.34,1.88-4.99,2.83-7.96,2.83
		C366.96,102.05,364.84,101.48,362.92,100.33z"/>
	<path class="st1" d="M384.45,101.24c-0.33-0.33-0.49-0.73-0.49-1.2v-22c0-0.5,0.16-0.9,0.49-1.22c0.32-0.31,0.73-0.47,1.2-0.47
		c0.5,0,0.9,0.16,1.22,0.47c0.31,0.31,0.47,0.72,0.47,1.22v9.33h15.08v-9.33c0-0.5,0.16-0.9,0.49-1.22c0.33-0.31,0.73-0.47,1.2-0.47
		c0.48,0,0.87,0.16,1.19,0.47c0.31,0.31,0.47,0.72,0.47,1.22v22c0,0.5-0.16,0.9-0.47,1.22c-0.31,0.31-0.71,0.47-1.19,0.47
		c-0.48,0-0.88-0.16-1.2-0.49c-0.32-0.33-0.49-0.73-0.49-1.2v-9.68h-15.08v9.68c0,0.48-0.16,0.88-0.47,1.2
		c-0.31,0.32-0.72,0.49-1.22,0.49C385.17,101.73,384.77,101.57,384.45,101.24z"/>
	<path class="st1" d="M413.56,101.24c-0.33-0.33-0.49-0.73-0.49-1.2v-22c0-0.5,0.16-0.9,0.49-1.22c0.32-0.31,0.73-0.47,1.2-0.47
		c0.5,0,0.9,0.16,1.22,0.47c0.31,0.31,0.47,0.72,0.47,1.22v22c0,0.48-0.16,0.88-0.47,1.2c-0.31,0.32-0.72,0.49-1.22,0.49
		C414.29,101.73,413.89,101.57,413.56,101.24z"/>
	<path class="st1" d="M428.78,100.33c-1.92-1.15-3.43-2.72-4.53-4.71c-1.1-1.99-1.66-4.19-1.66-6.6c0-2.38,0.55-4.56,1.66-6.55
		c1.1-1.98,2.62-3.55,4.53-4.71c1.92-1.16,4.03-1.74,6.35-1.74c1.65,0,3.07,0.22,4.27,0.65c1.2,0.43,2.42,1.15,3.66,2.14
		c0.26,0.19,0.43,0.4,0.52,0.6c0.09,0.21,0.13,0.45,0.13,0.73c0,0.43-0.16,0.79-0.47,1.07c-0.31,0.28-0.68,0.42-1.09,0.42
		c-0.41,0-0.79-0.14-1.14-0.42c-0.89-0.76-1.75-1.3-2.6-1.64c-0.84-0.34-1.94-0.5-3.28-0.5c-1.69,0-3.24,0.44-4.66,1.33
		c-1.42,0.89-2.55,2.1-3.38,3.62c-0.83,1.53-1.25,3.19-1.25,4.99c0,1.82,0.42,3.49,1.25,5c0.83,1.52,1.96,2.72,3.38,3.61
		c1.42,0.89,2.97,1.33,4.66,1.33c2.08,0,4.07-0.71,5.98-2.14c0.37-0.26,0.73-0.39,1.07-0.39c0.41,0,0.75,0.15,1.02,0.44
		c0.27,0.29,0.41,0.68,0.41,1.15c0,0.46-0.17,0.86-0.52,1.2c-2.34,1.88-4.99,2.83-7.96,2.83
		C432.82,102.05,430.7,101.48,428.78,100.33z"/>
	<path class="st1" d="M460.64,101.24c-0.33-0.33-0.49-0.73-0.49-1.2v-22c0-0.5,0.16-0.9,0.49-1.22c0.32-0.31,0.73-0.47,1.2-0.47h6.5
		c1.6,0,3.04,0.36,4.31,1.07c1.27,0.71,2.25,1.71,2.96,2.99c0.7,1.28,1.06,2.73,1.06,4.35c0,1.58-0.35,2.99-1.06,4.22
		c-0.7,1.23-1.69,2.2-2.96,2.89c-1.27,0.69-2.7,1.04-4.31,1.04h-4.81v7.12c0,0.48-0.16,0.88-0.47,1.2
		c-0.31,0.32-0.72,0.49-1.22,0.49C461.37,101.73,460.97,101.57,460.64,101.24z M468.34,89.8c1.47,0,2.69-0.47,3.64-1.41
		s1.43-2.15,1.43-3.62c0-1.54-0.48-2.81-1.43-3.8c-0.95-1-2.17-1.49-3.64-1.49h-4.81V89.8H468.34z"/>
	<path class="st1" d="M481.7,101.24c-0.33-0.33-0.49-0.73-0.49-1.2v-22c0-0.5,0.16-0.9,0.49-1.22c0.32-0.31,0.73-0.47,1.2-0.47
		h14.69c0.5,0,0.9,0.15,1.2,0.44c0.3,0.29,0.45,0.68,0.45,1.15c0,0.46-0.15,0.82-0.45,1.1c-0.3,0.28-0.7,0.42-1.2,0.42h-13v7.9h9.33
		c0.48,0,0.87,0.15,1.19,0.44c0.31,0.29,0.47,0.67,0.47,1.12c0,0.45-0.16,0.83-0.47,1.12c-0.31,0.29-0.71,0.44-1.19,0.44h-9.33v8.12
		h13c0.5,0,0.9,0.14,1.2,0.42c0.3,0.28,0.45,0.65,0.45,1.1c0,0.48-0.15,0.86-0.45,1.15c-0.3,0.29-0.7,0.44-1.2,0.44H482.9
		C482.42,101.73,482.02,101.57,481.7,101.24z"/>
	<path class="st1" d="M521.56,100.2c0,0.43-0.15,0.8-0.44,1.09c-0.29,0.29-0.69,0.44-1.19,0.44c-0.63,0-1.12-0.27-1.46-0.81
		l-5.59-8.97h-0.58h-4.16v8.09c0,0.48-0.16,0.88-0.47,1.2c-0.31,0.32-0.72,0.49-1.22,0.49c-0.48,0-0.88-0.16-1.2-0.49
		c-0.33-0.33-0.49-0.73-0.49-1.2v-22c0-0.5,0.16-0.9,0.49-1.22c0.32-0.31,0.73-0.47,1.2-0.47h5.85c1.6,0,3.04,0.34,4.31,1.01
		c1.27,0.67,2.25,1.61,2.96,2.83c0.7,1.21,1.06,2.6,1.06,4.16c0,1.54-0.39,2.9-1.17,4.09s-1.84,2.09-3.18,2.7l4.97,7.99
		C521.46,99.48,521.56,99.83,521.56,100.2z M512.3,88.83c1.47,0,2.69-0.42,3.64-1.25c0.95-0.83,1.43-1.91,1.43-3.23
		c0-1.43-0.48-2.6-1.43-3.51c-0.95-0.91-2.17-1.36-3.64-1.36h-4.16v9.36H512.3z"/>
	<path class="st1" d="M531.23,101.1c-1.61-0.77-2.87-1.84-3.77-3.2c-0.9-1.36-1.35-2.92-1.35-4.68V78.04c0-0.5,0.16-0.9,0.49-1.22
		c0.32-0.31,0.73-0.47,1.2-0.47c0.5,0,0.9,0.16,1.22,0.47c0.31,0.31,0.47,0.72,0.47,1.22v15.17c0,1.15,0.31,2.18,0.93,3.09
		c0.62,0.91,1.47,1.62,2.57,2.13c1.09,0.51,2.34,0.76,3.75,0.76c1.34,0,2.54-0.25,3.61-0.76c1.06-0.51,1.89-1.22,2.49-2.13
		s0.89-1.94,0.89-3.09V78.04c0-0.5,0.16-0.9,0.49-1.22c0.33-0.31,0.73-0.47,1.2-0.47s0.87,0.16,1.19,0.47
		c0.31,0.31,0.47,0.72,0.47,1.22v15.17c0,1.73-0.44,3.29-1.32,4.66s-2.1,2.45-3.67,3.22c-1.57,0.77-3.35,1.15-5.35,1.15
		C534.68,102.25,532.84,101.87,531.23,101.1z M535.54,73.09c-0.3-0.31-0.46-0.71-0.46-1.19c0-0.46,0.13-0.82,0.39-1.1l3.18-3.18
		c0.33-0.32,0.71-0.49,1.17-0.49c0.48,0,0.87,0.16,1.19,0.49c0.31,0.32,0.47,0.73,0.47,1.2c0,0.48-0.15,0.86-0.46,1.14l-3.15,3.15
		c-0.3,0.3-0.68,0.45-1.14,0.45C536.24,73.56,535.84,73.4,535.54,73.09z"/>
</g>
</svg>
