<svg id="Capa_1" data-name="Capa 1" xmlns="http://www.w3.org/2000/svg" viewBox="0 0 1080 1080"><defs><style>.cls-1{fill:#35405e;}</style></defs><path class="cls-1" d="M420,418c-3.15.51-6.31,1.16-9.39,1.94s-6.13,1.7-9.11,2.74-5.91,2.2-8.81,3.5-5.72,2.71-8.47,4.24-5.48,3.2-8.1,4.95-5.23,3.65-7.72,5.63-5,4.1-7.31,6.29-4.67,4.52-6.87,6.9-4.35,4.92-6.4,7.51-3.81,5-5.58,7.53c-.73,1.06-1.47,2.12-2.14,3.22a26.62,26.62,0,0,0-1.79,3.44,8.86,8.86,0,0,0,1.08,8.55,10,10,0,0,0,3.39,2.89,13.16,13.16,0,0,0,4.4,1.3,62.52,62.52,0,0,0,10,.67c1.77,0,3.53,0,5.26-.09a117,117,0,0,0,14.37-1.31,112.09,112.09,0,0,0,13.85-3.05,110.7,110.7,0,0,0,25.69-11.09,111.11,111.11,0,0,0,22.18-17.33A113.76,113.76,0,0,0,448,445.55a119,119,0,0,0,8.24-12.2c.42-.71.82-1.42,1.23-2.14a9,9,0,0,0,.29-8.68,10.44,10.44,0,0,0-8.19-5.36c-3.33-.34-6.7-.54-10-.6h-1.88c-2.67,0-5.36.09-8,.28C426.39,417.07,423.15,417.45,420,418Zm-53.93,50.11a91.87,91.87,0,0,1,63.11-32.37,1.22,1.22,0,0,1,1,2,91.79,91.79,0,0,1-63.1,32.37A1.22,1.22,0,0,1,366.05,468.07Z"/><path class="cls-1" d="M609.84,356.15H695c6,0,9.11-4.71,9.11-9.37s-3.13-9.35-9.11-9.35H609.84c-6,0-9.1,4.71-9.1,9.36S603.86,356.15,609.84,356.15Z"/><path class="cls-1" d="M609.84,398.74H695c6,0,9.11-4.71,9.11-9.36S700.93,380,695,380H609.84c-6,0-9.1,4.71-9.1,9.36S603.86,398.74,609.84,398.74Z"/><path class="cls-1" d="M609.84,441.34H695c6,0,9.11-4.71,9.11-9.36s-3.13-9.35-9.11-9.35H609.84c-6,0-9.1,4.7-9.1,9.36S603.86,441.34,609.84,441.34Z"/><path class="cls-1" d="M609.84,483.94H695c6,0,9.11-4.71,9.11-9.37s-3.13-9.35-9.11-9.35H609.84c-6,0-9.1,4.71-9.1,9.36S603.86,483.94,609.84,483.94Z"/><path class="cls-1" d="M352.2,266.63c-.52-1.45-1.07-2.88-1.66-4.3a77.38,77.38,0,0,0-5.92-11.5,85.14,85.14,0,0,0-21-22.51c-2.81-2.12-6.62-2.21-10,.22a10.91,10.91,0,0,0-4.28,8.88V346.93a11,11,0,0,0,4.27,8.94c3.36,2.45,7.19,2.37,10,.24,10.83-8.19,19.09-17.82,24.56-28.63A76.64,76.64,0,0,0,352.2,266.63Zm-17.92,54.76a60,60,0,0,1-7.12,10.91,1.2,1.2,0,0,1-2.1-.77V252.9a1.19,1.19,0,0,1,2.1-.76,59.62,59.62,0,0,1,7.12,10.9,66.69,66.69,0,0,1,0,58.35Z"/><path class="cls-1" d="M768.54,511.45A9.26,9.26,0,0,0,761.4,508q-3.61-.11-7.25-.11c-6.51,0-13.11.26-19.67.75V293a9.38,9.38,0,0,0-9.35-9.36H579.67a9.38,9.38,0,0,0-9.36,9.36v86.61h-69A9.39,9.39,0,0,0,492,389V511.11c-50.52,10.86-95.87,38.45-131.46,77.54-27.52-44.34-37.28-95.74-29.47-148.58a118.24,118.24,0,0,0,81.39-52.84c18.33-28.72,23.14-64.41,13.18-97.92a10,10,0,0,0-9.22-6.92,8.16,8.16,0,0,0-4.64,1.44c-46.4,32.11-78.58,75.44-93.07,125.31-1.62,5.58-4.28,17.15-5.48,23.8a238.21,238.21,0,0,0,8.9,118.35,231.71,231.71,0,0,0,66.54,100.07c3.52,3.07,7.16,6.06,10.81,8.88,40,30.79,90.42,47.75,142,47.75h0c51.11,0,101.18-16.69,141-47a231.69,231.69,0,0,0,45.7-46.32,8.61,8.61,0,0,0,2.8-3.91,237.33,237.33,0,0,0,39.4-91.09A10,10,0,0,0,768.54,511.45ZM409,309.1a1.23,1.23,0,0,1,2,.78c7.31,52-25.44,99.63-76.1,110.59A219,219,0,0,1,409,309.1Zm183.93-6.74H711.86a3.92,3.92,0,0,1,3.91,3.92V510.74c-25.16,3.81-48,11.19-68.16,21.92A235,235,0,0,0,589,511.3v-205A3.92,3.92,0,0,1,592.94,302.36Zm-82.23,99.89a3.91,3.91,0,0,1,3.91-3.91h55.69v24.38H529.66c-6,0-9.11,4.7-9.11,9.36a9.73,9.73,0,0,0,2.26,6.36,8.75,8.75,0,0,0,6.85,3h40.65v23.79H529.66c-6,0-9.11,4.71-9.11,9.36s3.13,9.36,9.11,9.36h40.65v24a222.52,222.52,0,0,0-59.6-.13Zm185,220.47,0-.05c-40.76,42.27-97.39,67-155.43,67A210.72,210.72,0,0,1,480.29,681a208.1,208.1,0,0,1-91.23-55.25h0a128.53,128.53,0,0,1-15.39-17.89c-.64-.91-1.25-1.77-1.82-2.6C415.08,556,474.5,525.47,540.06,525.47c66.23,0,126.24,31.11,169.6,81.24l-.6.8C700.72,618.43,695.68,622.72,695.68,622.72Zm53.45-94.5a204.37,204.37,0,0,1-27.75,62.12l-.09.15a265.79,265.79,0,0,0-57.64-48.64c1.16.7,2.38,1.39,3.5,2.1,23.67-10.54,51.4-16.5,80.77-17.26A1.23,1.23,0,0,1,749.13,528.22Z"/><path class="cls-1" d="M228.39,777.47H216.07a5.1,5.1,0,0,0-3.51,1.25,4.51,4.51,0,0,0,0,6.66,5.09,5.09,0,0,0,3.51,1.26h7.54V796a17.51,17.51,0,0,1-9.06,2.61,16,16,0,0,1-8.63-2.47,18.13,18.13,0,0,1-6.32-6.74,20,20,0,0,1,0-18.78,18.15,18.15,0,0,1,6.32-6.77,16,16,0,0,1,8.63-2.47,17,17,0,0,1,6.08.91,18,18,0,0,1,4.87,3.09,5,5,0,0,0,3.22,1.21,4.78,4.78,0,0,0,3.31-1.26A4.34,4.34,0,0,0,233.5,762a5.3,5.3,0,0,0-.39-2.09,4.44,4.44,0,0,0-1.51-1.82,27.44,27.44,0,0,0-7.86-4.6,27.14,27.14,0,0,0-9.19-1.41,26,26,0,0,0-13.68,3.75,27,27,0,0,0-9.75,10.12,29.62,29.62,0,0,0,0,28.16,26.69,26.69,0,0,0,9.75,10.14,27.11,27.11,0,0,0,30.8-2.37,4.5,4.5,0,0,0,1.63-3.64V782.45a5,5,0,0,0-1.41-3.57A4.84,4.84,0,0,0,228.39,777.47Z"/><path class="cls-1" d="M285.3,800.3,266.74,756a4.74,4.74,0,0,0-4.68-3.31A4.92,4.92,0,0,0,257.4,756l-18.53,44.26a5.8,5.8,0,0,0-.44,2.07,4.93,4.93,0,0,0,1.38,3.47,4.71,4.71,0,0,0,3.54,1.51,4.85,4.85,0,0,0,2.69-.81,5.2,5.2,0,0,0,1.87-2.19l3.4-8.33h21.56l3.3,8.25a4.72,4.72,0,0,0,1.9,2.28,5,5,0,0,0,2.7.8,4.91,4.91,0,0,0,3.54-1.44,4.81,4.81,0,0,0,1.44-3.47A5.69,5.69,0,0,0,285.3,800.3Zm-30.42-13.14,7.3-17.79,7.14,17.79Z"/><path class="cls-1" d="M329.14,799.62,320,784.84a16.24,16.24,0,0,0,8.17-14.38,18.12,18.12,0,0,0-2.35-9.22,16.36,16.36,0,0,0-6.61-6.32,20,20,0,0,0-9.46-2.22H297.84a4.87,4.87,0,0,0-5,5v44.61a5,5,0,1,0,10,0V787.43H310l10.88,17.47a4.89,4.89,0,0,0,4.28,2.36,4.76,4.76,0,0,0,3.5-1.34,4.57,4.57,0,0,0,1.34-3.31A5.62,5.62,0,0,0,329.14,799.62Zm-26.32-37.5h6.88a8.7,8.7,0,0,1,6.31,2.34,7.86,7.86,0,0,1,2.42,6,6.79,6.79,0,0,1-2.37,5.39A9.23,9.23,0,0,1,309.7,778h-6.88Z"/><path class="cls-1" d="M377.74,765.92a24.93,24.93,0,0,0-9.62-9.73,28,28,0,0,0-14-3.49H342.18a4.87,4.87,0,0,0-5,5v44.61a4.92,4.92,0,0,0,5,5h11.93a28,28,0,0,0,14-3.5,24.8,24.8,0,0,0,9.62-9.76,30.53,30.53,0,0,0,0-28.08ZM354.11,798.1h-6.95V761.86h6.95a17.75,17.75,0,0,1,9,2.29,16.09,16.09,0,0,1,6.13,6.38,19.62,19.62,0,0,1,2.22,9.42,19.94,19.94,0,0,1-2.22,9.45,16,16,0,0,1-6.13,6.4A17.71,17.71,0,0,1,354.11,798.1Z"/><path class="cls-1" d="M424.22,797.83h-24.8V784.46h17.36a4.9,4.9,0,0,0,3.46-1.31,4.72,4.72,0,0,0,0-6.81,4.9,4.9,0,0,0-3.46-1.31H399.42V762.12h24.8a4.94,4.94,0,0,0,3.5-1.27,4.49,4.49,0,0,0,1.41-3.37,4.69,4.69,0,0,0-1.39-3.46,4.88,4.88,0,0,0-3.52-1.32H394.44a4.87,4.87,0,0,0-5,5v44.61a4.92,4.92,0,0,0,5,5h29.78a4.88,4.88,0,0,0,3.52-1.32,4.69,4.69,0,0,0,1.39-3.46,4.52,4.52,0,0,0-1.41-3.38A5,5,0,0,0,424.22,797.83Z"/><path class="cls-1" d="M479.45,754.11a4.8,4.8,0,0,0-3.5-1.41,4.87,4.87,0,0,0-5,5v31.4L445,754.57l-.07-.09a5.44,5.44,0,0,0-1.66-1.26,4.9,4.9,0,0,0-5.64.89,4.82,4.82,0,0,0-1.41,3.56v44.61a5,5,0,0,0,8.49,3.52,4.87,4.87,0,0,0,1.39-3.52V771l25.92,34.47a3.88,3.88,0,0,0,1.85,1.44,5.57,5.57,0,0,0,2.05.4,4.82,4.82,0,0,0,4.91-5V757.67A4.82,4.82,0,0,0,479.45,754.11Z"/><path class="cls-1" d="M550.48,793.42a5.36,5.36,0,0,0-3.11,1.1,18.5,18.5,0,0,1-11.19,4,16,16,0,0,1-8.64-2.47,18.19,18.19,0,0,1-6.31-6.74,19.94,19.94,0,0,1,0-18.78,18.13,18.13,0,0,1,6.31-6.77,16,16,0,0,1,8.64-2.47,17,17,0,0,1,6.08.91,18,18,0,0,1,4.87,3.09,5.08,5.08,0,0,0,3.28,1.21,4.7,4.7,0,0,0,3.24-1.25,4.35,4.35,0,0,0,1.47-3.33,5.3,5.3,0,0,0-.38-2.09,4.52,4.52,0,0,0-1.51-1.82,27.57,27.57,0,0,0-7.86-4.6,27.14,27.14,0,0,0-9.19-1.41,26.06,26.06,0,0,0-13.69,3.75,27,27,0,0,0-9.74,10.12,29.62,29.62,0,0,0,0,28.16,26.69,26.69,0,0,0,9.75,10.14,26.25,26.25,0,0,0,13.68,3.71,26.6,26.6,0,0,0,17.11-6.08l.07-.05.06-.06a4.92,4.92,0,0,0,1.51-3.53,4.8,4.8,0,0,0-1.24-3.39A4.26,4.26,0,0,0,550.48,793.42Z"/><path class="cls-1" d="M609.33,754.1a5,5,0,0,0-8.48,3.57V775H573.38V757.67A5,5,0,0,0,572,754.1a5,5,0,0,0-8.55,3.57v44.61a5,5,0,1,0,10,0V784.2h27.47v18.08a4.92,4.92,0,0,0,5,5,4.84,4.84,0,0,0,3.5-1.41,4.93,4.93,0,0,0,1.41-3.57V757.67A5,5,0,0,0,609.33,754.1Z"/><path class="cls-1" d="M630,754.1a5.19,5.19,0,0,0-7.08,0,4.82,4.82,0,0,0-1.46,3.58v44.61a5,5,0,1,0,9.95,0V757.67A5,5,0,0,0,630,754.1Z"/><path class="cls-1" d="M681.08,793.42a5.36,5.36,0,0,0-3.11,1.1,18.5,18.5,0,0,1-11.19,4,16,16,0,0,1-8.63-2.47,18.13,18.13,0,0,1-6.32-6.74,19.94,19.94,0,0,1,0-18.78,18.07,18.07,0,0,1,6.32-6.77,16,16,0,0,1,8.63-2.47,17,17,0,0,1,6.08.91,18,18,0,0,1,4.87,3.09,5.08,5.08,0,0,0,3.28,1.21,4.7,4.7,0,0,0,3.24-1.25,4.36,4.36,0,0,0,1.48-3.33,5.3,5.3,0,0,0-.39-2.09,4.44,4.44,0,0,0-1.51-1.82,27.44,27.44,0,0,0-7.86-4.6,27.14,27.14,0,0,0-9.19-1.41,26.06,26.06,0,0,0-13.69,3.75,27,27,0,0,0-9.74,10.12,29.62,29.62,0,0,0,0,28.16,26.69,26.69,0,0,0,9.75,10.14,26.25,26.25,0,0,0,13.68,3.71,26.65,26.65,0,0,0,17.12-6.08l.06-.05.06-.06a4.92,4.92,0,0,0,1.51-3.53,4.8,4.8,0,0,0-1.24-3.39A4.26,4.26,0,0,0,681.08,793.42Z"/><path class="cls-1" d="M748.23,761.73a17,17,0,0,0-6.59-6.66,19,19,0,0,0-9.49-2.37H719a4.87,4.87,0,0,0-5,5v44.61a4.92,4.92,0,0,0,5,5,4.87,4.87,0,0,0,5-5V789.4h8.21a19.43,19.43,0,0,0,9.47-2.3,16.71,16.71,0,0,0,6.6-6.45,18.56,18.56,0,0,0,2.35-9.34A19.64,19.64,0,0,0,748.23,761.73ZM732.15,780h-8.21V762.12h8.21a8.26,8.26,0,0,1,6.26,2.55,9.15,9.15,0,0,1,2.47,6.64,8.35,8.35,0,0,1-2.44,6.25A8.54,8.54,0,0,1,732.15,780Z"/><path class="cls-1" d="M792.5,797.83H767.7V784.46h17.36a4.9,4.9,0,0,0,3.46-1.31,4.72,4.72,0,0,0,0-6.81,4.9,4.9,0,0,0-3.46-1.31H767.7V762.12h24.8a4.94,4.94,0,0,0,3.5-1.27,4.5,4.5,0,0,0,1.42-3.37A4.69,4.69,0,0,0,796,754a4.88,4.88,0,0,0-3.52-1.32H762.72a4.87,4.87,0,0,0-5,5v44.61a4.93,4.93,0,0,0,5,5H792.5a4.88,4.88,0,0,0,3.52-1.32,4.69,4.69,0,0,0,1.4-3.46A4.49,4.49,0,0,0,796,799.1,5,5,0,0,0,792.5,797.83Z"/><path class="cls-1" d="M840.8,799.62l-9.19-14.78a16.17,16.17,0,0,0,5.55-5.23,16.42,16.42,0,0,0,2.63-9.15,18.12,18.12,0,0,0-2.36-9.22,16.36,16.36,0,0,0-6.61-6.32,19.88,19.88,0,0,0-9.45-2.22H809.5a4.87,4.87,0,0,0-5,5v44.61a5,5,0,1,0,10,0V787.43h7.21l10.89,17.47a4.88,4.88,0,0,0,4.27,2.36,4.76,4.76,0,0,0,3.5-1.34,4.57,4.57,0,0,0,1.35-3.31A5.55,5.55,0,0,0,840.8,799.62Zm-26.32-37.5h6.89a8.72,8.72,0,0,1,6.31,2.34,7.9,7.9,0,0,1,2.42,6,6.79,6.79,0,0,1-2.37,5.39,9.23,9.23,0,0,1-6.36,2.15h-6.89Z"/><path class="cls-1" d="M869.93,750.13a4.69,4.69,0,0,0,3.4-1.38l6.35-6.35A4.54,4.54,0,0,0,881.1,739a5,5,0,0,0-1.39-3.52,4.94,4.94,0,0,0-7,0l-6.5,6.51a4.66,4.66,0,0,0-1.2,3.29,4.83,4.83,0,0,0,1.36,3.48A4.78,4.78,0,0,0,869.93,750.13Z"/><path class="cls-1" d="M891,754.1a5,5,0,0,0-8.47,3.57v30.78a9.6,9.6,0,0,1-1.56,5.41,10.69,10.69,0,0,1-4.42,3.76,15.17,15.17,0,0,1-6.64,1.4,16.41,16.41,0,0,1-7-1.4,10.94,10.94,0,0,1-4.57-3.79,9.2,9.2,0,0,1-1.61-5.38V757.67a5,5,0,1,0-10,0v30.78a18.48,18.48,0,0,0,3,10.34,20.07,20.07,0,0,0,8.27,7,27.35,27.35,0,0,0,11.84,2.49,26.09,26.09,0,0,0,11.52-2.5,19.55,19.55,0,0,0,8.07-7.08,18.75,18.75,0,0,0,2.92-10.29V757.67A4.92,4.92,0,0,0,891,754.1Z"/><path class="cls-1" d="M349.87,841.46a7.48,7.48,0,0,0,2.51-2.43,7.71,7.71,0,0,0,1.21-4.29,8.57,8.57,0,0,0-1.08-4.31,7.58,7.58,0,0,0-3.05-3,9.08,9.08,0,0,0-4.35-1h-5.44a2.29,2.29,0,0,0-2.32,2.36v20.8a2.35,2.35,0,0,0,.67,1.68,2.25,2.25,0,0,0,1.65.68,2.29,2.29,0,0,0,1.68-.69,2.41,2.41,0,0,0,.65-1.67V842.7h3.23l5,8.12a2.25,2.25,0,0,0,2,1.12,2.17,2.17,0,0,0,2.26-2.21,2.66,2.66,0,0,0-.42-1.42ZM342,831.07h3.35a4.26,4.26,0,0,1,3.09,1.14,3.86,3.86,0,0,1,1.18,2.93,3.3,3.3,0,0,1-1.16,2.63,4.49,4.49,0,0,1-3.11,1.05H342Z"/><path class="cls-1" d="M378.91,831.07a2.21,2.21,0,0,0,2.29-2.29,2.42,2.42,0,0,0-.65-1.71,2.23,2.23,0,0,0-1.64-.65H365.25a2.28,2.28,0,0,0-1.64.68,2.46,2.46,0,0,0-.68,1.77v21.45a2.5,2.5,0,0,0,.67,1.75,2.24,2.24,0,0,0,1.65.71h13.66a2.2,2.2,0,0,0,1.64-.66,2.38,2.38,0,0,0,.65-1.7,2.31,2.31,0,0,0-.66-1.67,2.28,2.28,0,0,0-1.63-.62H367.58v-6.21h8.35a2.4,2.4,0,0,0,1.7-.64,2.24,2.24,0,0,0,.72-1.68,2.21,2.21,0,0,0-.72-1.68,2.41,2.41,0,0,0-1.7-.65h-8.35v-6.2Z"/><path class="cls-1" d="M398.86,831.34a7.19,7.19,0,0,1,4-1.22,7.43,7.43,0,0,1,2.84.45A8,8,0,0,1,408,832.1a2.36,2.36,0,0,0,1.55.61,2.2,2.2,0,0,0,1.58-.64,2.23,2.23,0,0,0,.71-1.69,2.89,2.89,0,0,0-.18-1,2.36,2.36,0,0,0-.73-.93,12.94,12.94,0,0,0-3.71-2.29,12.19,12.19,0,0,0-4.34-.7,11.71,11.71,0,0,0-6.46,1.87,13.15,13.15,0,0,0-4.61,5.05,14.86,14.86,0,0,0-1.68,7,15,15,0,0,0,1.68,7,13.11,13.11,0,0,0,4.61,5.06A12.23,12.23,0,0,0,411,850.24a2.29,2.29,0,0,0,.79-1.84v-7.83a2.6,2.6,0,0,0-.68-1.81,2.24,2.24,0,0,0-1.68-.71h-5.8a2.37,2.37,0,0,0-1.68.63,2.37,2.37,0,0,0,0,3.38,2.33,2.33,0,0,0,1.68.64h3.51v4.55a7.85,7.85,0,0,1-4.22,1.28,7.19,7.19,0,0,1-4-1.22,8.89,8.89,0,0,1-3-3.34,10.42,10.42,0,0,1,0-9.28A8.84,8.84,0,0,1,398.86,831.34Z"/><path class="cls-1" d="M432.12,828.51a2.27,2.27,0,0,0-2.24-1.6,2.38,2.38,0,0,0-2.24,1.57l-8.72,20.82a2.73,2.73,0,0,0-.2,1,2.4,2.4,0,0,0,.65,1.66,2.35,2.35,0,0,0,3,.33,2.46,2.46,0,0,0,.92-1.08l1.57-3.86h10.09l1.54,3.85a2.13,2.13,0,0,0,.7.95,2.4,2.4,0,0,0,1.51.53,2.35,2.35,0,0,0,1.69-.69,2.31,2.31,0,0,0,.69-1.66,2.62,2.62,0,0,0-.21-1Zm-5.55,14.19,3.36-8.2,3.3,8.2Z"/><path class="cls-1" d="M463.88,847.35H453.63V829.23a2.25,2.25,0,0,0-.68-1.65,2.31,2.31,0,0,0-1.66-.68,2.28,2.28,0,0,0-1.63.68,2.25,2.25,0,0,0-.68,1.65v20.45a2.34,2.34,0,0,0,.65,1.64,2.26,2.26,0,0,0,1.66.68h12.59a2.32,2.32,0,0,0,1.66-.67,2.29,2.29,0,0,0,.68-1.65,2.31,2.31,0,0,0-2.34-2.33Z"/><path class="cls-1" d="M486.24,828.51a2.29,2.29,0,0,0-2.25-1.6,2.38,2.38,0,0,0-2.24,1.57L473,849.3a2.73,2.73,0,0,0-.2,1,2.4,2.4,0,0,0,.65,1.66,2.29,2.29,0,0,0,1.7.72,2.36,2.36,0,0,0,1.3-.39,2.44,2.44,0,0,0,.91-1.08l1.57-3.86h10.09l1.54,3.85a2.21,2.21,0,0,0,.7.95,2.4,2.4,0,0,0,1.51.53,2.35,2.35,0,0,0,1.69-.69,2.31,2.31,0,0,0,.69-1.66,2.62,2.62,0,0,0-.21-1Zm-5.56,14.19,3.36-8.2,3.3,8.2Z"/><path class="cls-1" d="M534.22,838a6.17,6.17,0,0,0,1.16-1.29,5.46,5.46,0,0,0,1-3.14,6.91,6.91,0,0,0-3.84-6.27,8.7,8.7,0,0,0-4-.9h-7.36a2.36,2.36,0,0,0-1.67.66,2.3,2.3,0,0,0-.7,1.71v20.84a2.34,2.34,0,0,0,2.37,2.37h8a9.57,9.57,0,0,0,4.43-1,7.51,7.51,0,0,0,3.11-2.87,7.92,7.92,0,0,0,1.12-4.15,6.53,6.53,0,0,0-1.38-4.24A6.19,6.19,0,0,0,534.22,838Zm-5,10.11H523.4v-7h5.86a5,5,0,0,1,3.14.89,2.8,2.8,0,0,1,1.05,2.4,3.35,3.35,0,0,1-1.09,2.71A4.59,4.59,0,0,1,529.26,848.13Zm1.6-12.36a3.74,3.74,0,0,1-2.44.73h-5v-5.43h5a3.84,3.84,0,0,1,2.45.71,2.37,2.37,0,0,1,.81,2A2.41,2.41,0,0,1,530.86,835.77Z"/><path class="cls-1" d="M549.76,827a2.28,2.28,0,0,0-1.64.65,2.25,2.25,0,0,0-.69,1.67v20.45a2.35,2.35,0,0,0,4,1.64,2.34,2.34,0,0,0,.65-1.64V829.34a2.29,2.29,0,0,0-.66-1.66A2.33,2.33,0,0,0,549.76,827Z"/><path class="cls-1" d="M578.92,831.07a2.21,2.21,0,0,0,2.29-2.29,2.38,2.38,0,0,0-.65-1.71,2.23,2.23,0,0,0-1.64-.65H565.26a2.28,2.28,0,0,0-1.64.68,2.5,2.5,0,0,0-.68,1.77v21.45a2.5,2.5,0,0,0,.67,1.75,2.24,2.24,0,0,0,1.65.71h13.66a2.2,2.2,0,0,0,1.64-.66,2.34,2.34,0,0,0,.65-1.7,2.31,2.31,0,0,0-.66-1.67,2.28,2.28,0,0,0-1.63-.62H567.59v-6.21h8.35a2.44,2.44,0,0,0,1.71-.64,2.34,2.34,0,0,0,0-3.37,2.44,2.44,0,0,0-1.7-.64h-8.35v-6.2Z"/><path class="cls-1" d="M609.47,826.71a2.3,2.3,0,0,0-1.65.65,2.26,2.26,0,0,0-.69,1.69v14.63L595,827.56a2.48,2.48,0,0,0-.79-.59,2.24,2.24,0,0,0-1-.26,2.31,2.31,0,0,0-2.35,2.38v21a2.31,2.31,0,0,0,.66,1.67,2.38,2.38,0,0,0,3.33,0,2.31,2.31,0,0,0,.66-1.65v-14.6l12,16a1.93,1.93,0,0,0,.9.71,2.89,2.89,0,0,0,1,.19,2.31,2.31,0,0,0,2.35-2.38v-21a2.27,2.27,0,0,0-2.31-2.34Z"/><path class="cls-1" d="M638.61,831.07a2.22,2.22,0,0,0,2.3-2.29,2.39,2.39,0,0,0-.66-1.71,2.23,2.23,0,0,0-1.64-.65H625a2.27,2.27,0,0,0-1.64.68,2.47,2.47,0,0,0-.69,1.77v21.45a2.51,2.51,0,0,0,.68,1.75,2.24,2.24,0,0,0,1.65.71h13.65a2.18,2.18,0,0,0,1.64-.66,2.35,2.35,0,0,0,.66-1.7,2.28,2.28,0,0,0-.67-1.67,2.25,2.25,0,0,0-1.63-.62H627.28v-6.21h8.35a2.42,2.42,0,0,0,1.71-.64,2.35,2.35,0,0,0,0-3.37,2.47,2.47,0,0,0-1.71-.64h-8.35v-6.2Z"/><path class="cls-1" d="M660.11,837c-2.58-.26-3.73-.82-4.24-1.25a2.6,2.6,0,0,1-1-2.1,2.19,2.19,0,0,1,1.09-2,6.47,6.47,0,0,1,3.41-.79,5.62,5.62,0,0,1,2.79.62,5.12,5.12,0,0,1,1.79,1.82,2.38,2.38,0,0,0,.92.94,2.43,2.43,0,0,0,1.26.34,2.22,2.22,0,0,0,1.25-.36,2.07,2.07,0,0,0,.95-1.75,2.93,2.93,0,0,0-.49-1.53,10,10,0,0,0-3.37-3.35,9.38,9.38,0,0,0-4.89-1.2,12.93,12.93,0,0,0-4.69.82,7.82,7.82,0,0,0-3.44,2.44,6.17,6.17,0,0,0-1.29,3.91,6.69,6.69,0,0,0,2.47,5.29,11.54,11.54,0,0,0,6.47,2.42,6.36,6.36,0,0,1,3.71,1.34,3.18,3.18,0,0,1,1.11,2.45,2.57,2.57,0,0,1-1.26,2.29,6.27,6.27,0,0,1-3.51.94,7.14,7.14,0,0,1-3.28-.76,3.81,3.81,0,0,1-1.84-1.67,2.59,2.59,0,0,0-1-1.12,2.48,2.48,0,0,0-1.37-.42,2.27,2.27,0,0,0-.48,0,2.6,2.6,0,0,0-1.33.71,2,2,0,0,0-.55,1.36,2.35,2.35,0,0,0,.22.92,8.14,8.14,0,0,0,3.73,3.94,11.92,11.92,0,0,0,5.85,1.46,12.42,12.42,0,0,0,4.58-.84,8.14,8.14,0,0,0,3.54-2.64,7,7,0,0,0,1.37-4.3,7.18,7.18,0,0,0-2.3-5.52A10.59,10.59,0,0,0,660.11,837Z"/><path class="cls-1" d="M692.71,826.42H676.56a2.14,2.14,0,0,0-1.58.66,2.52,2.52,0,0,0,0,3.33,2.14,2.14,0,0,0,1.58.66h5.76v19.37a2.48,2.48,0,0,0,.68,1.74,2.27,2.27,0,0,0,3.3,0,2.47,2.47,0,0,0,.68-1.74V831.07h5.73a2.12,2.12,0,0,0,1.58-.66,2.52,2.52,0,0,0,0-3.33A2.14,2.14,0,0,0,692.71,826.42Z"/><path class="cls-1" d="M712,828.51a2.27,2.27,0,0,0-2.24-1.6,2.38,2.38,0,0,0-2.24,1.57l-8.72,20.83a2.71,2.71,0,0,0-.21,1,2.41,2.41,0,0,0,.66,1.66,2.35,2.35,0,0,0,3,.33,2.45,2.45,0,0,0,.92-1.08l1.57-3.86h10.08l1.55,3.85a2.13,2.13,0,0,0,.71,1,2.41,2.41,0,0,0,1.49.52,2.36,2.36,0,0,0,1.7-.69,2.31,2.31,0,0,0,.69-1.66,2.62,2.62,0,0,0-.21-1Zm-5.55,14.19,3.36-8.2,3.3,8.2Z"/><path class="cls-1" d="M746.32,848.31l-4.19-6.85a7.33,7.33,0,0,0,2.52-2.43,7.71,7.71,0,0,0,1.21-4.29,8.57,8.57,0,0,0-1.08-4.31,7.58,7.58,0,0,0-3-3,9.08,9.08,0,0,0-4.35-1h-5.44a2.31,2.31,0,0,0-2.33,2.36v20.8a2.36,2.36,0,0,0,.68,1.68,2.25,2.25,0,0,0,1.65.68,2.29,2.29,0,0,0,1.68-.69,2.41,2.41,0,0,0,.65-1.67V842.7h3.23l5,8.12a2.25,2.25,0,0,0,2,1.12,2.17,2.17,0,0,0,2.27-2.21A2.66,2.66,0,0,0,746.32,848.31Zm-12.05-17.24h3.35a4.26,4.26,0,0,1,3.09,1.14,3.86,3.86,0,0,1,1.18,2.93,3.3,3.3,0,0,1-1.16,2.63,4.51,4.51,0,0,1-3.11,1.05h-3.35Z"/></svg>