<svg id="Capa_1" data-name="Capa 1" xmlns="http://www.w3.org/2000/svg" viewBox="0 0 1000 400"><defs><style>.cls-1{fill:#35405e;}.cls-2{fill:#fff;}</style></defs><rect class="cls-1" width="1000" height="400"/><path class="cls-2" d="M127.11,176.72c-1.48.24-3,.55-4.42.92s-2.89.8-4.3,1.29-2.78,1-4.14,1.65-2.7,1.28-4,2-2.58,1.5-3.81,2.33-2.47,1.72-3.64,2.65-2.34,1.93-3.45,3-2.2,2.13-3.23,3.26-2.05,2.31-3,3.54-1.79,2.34-2.63,3.54c-.34.5-.69,1-1,1.52a12,12,0,0,0-.84,1.62,4.18,4.18,0,0,0,.51,4,4.78,4.78,0,0,0,1.59,1.36,6.39,6.39,0,0,0,2.08.62,30.28,30.28,0,0,0,4.7.31c.83,0,1.66,0,2.48,0a54.77,54.77,0,0,0,6.77-.62,53.34,53.34,0,0,0,6.52-1.43A52.37,52.37,0,0,0,119.5,206a53.21,53.21,0,0,0,5.88-3,54.25,54.25,0,0,0,5.46-3.73,53.67,53.67,0,0,0,5-4.44,54.37,54.37,0,0,0,4.47-5.1,56.63,56.63,0,0,0,3.87-5.75l.59-1a4.26,4.26,0,0,0,.13-4.09,4.89,4.89,0,0,0-3.86-2.53c-1.57-.16-3.16-.26-4.72-.28h-.89c-1.25,0-2.52.05-3.76.14C130.13,176.31,128.61,176.48,127.11,176.72ZM101.7,200.34a43.29,43.29,0,0,1,29.74-15.26.58.58,0,0,1,.48.94,43.28,43.28,0,0,1-29.74,15.25A.57.57,0,0,1,101.7,200.34Z"/><path class="cls-2" d="M216.58,147.6h40.11a4.41,4.41,0,0,0,0-8.82H216.58a4.41,4.41,0,0,0,0,8.82Z"/><path class="cls-2" d="M216.58,167.67h40.11a4.41,4.41,0,0,0,0-8.82H216.58a4.41,4.41,0,0,0,0,8.82Z"/><path class="cls-2" d="M216.58,187.74h40.11a4.41,4.41,0,0,0,0-8.82H216.58a4.41,4.41,0,0,0,0,8.82Z"/><path class="cls-2" d="M216.58,207.81h40.11a4.41,4.41,0,0,0,0-8.82H216.58a4.41,4.41,0,0,0,0,8.82Z"/><path class="cls-2" d="M95.17,105.41c-.24-.68-.5-1.35-.78-2A36.41,36.41,0,0,0,91.6,98a40.33,40.33,0,0,0-9.87-10.61,3.85,3.85,0,0,0-4.71.11,5.12,5.12,0,0,0-2,4.18v51.6a5.17,5.17,0,0,0,2,4.21,3.85,3.85,0,0,0,4.72.12A39.27,39.27,0,0,0,93.3,134.09,36.09,36.09,0,0,0,95.17,105.41Zm-8.44,25.81a28.7,28.7,0,0,1-3.36,5.14.56.56,0,0,1-1-.36V99a.56.56,0,0,1,1-.37,28.7,28.7,0,0,1,3.36,5.14,31.41,31.41,0,0,1,0,27.5Z"/><path class="cls-2" d="M291.36,220.78a4.37,4.37,0,0,0-3.37-1.64c-1.13,0-2.27,0-3.41,0-3.07,0-6.18.12-9.27.36V117.84a4.42,4.42,0,0,0-4.41-4.41H202.36a4.43,4.43,0,0,0-4.41,4.41v40.82H165.46a4.42,4.42,0,0,0-4.41,4.41v57.55c-23.81,5.11-45.18,18.12-62,36.53-13-20.89-17.57-45.11-13.89-70a55.27,55.27,0,0,0,44.57-71,4.7,4.7,0,0,0-4.35-3.26,3.81,3.81,0,0,0-2.19.68c-21.86,15.13-37,35.55-43.85,59.05-.77,2.63-2,8.08-2.58,11.21A112.19,112.19,0,0,0,81,239.55a109.25,109.25,0,0,0,31.36,47.16c1.65,1.44,3.37,2.85,5.09,4.18a110.09,110.09,0,0,0,66.91,22.5h0a108.44,108.44,0,0,0,88-44,4,4,0,0,0,1.32-1.84,111.76,111.76,0,0,0,18.57-42.92A4.73,4.73,0,0,0,291.36,220.78ZM121.94,125.43a.58.58,0,0,1,.93.36c3.44,24.51-12,47-35.86,52.12A103.26,103.26,0,0,1,121.94,125.43Zm86.68-3.18h56a1.84,1.84,0,0,1,1.84,1.85v96.34a99.85,99.85,0,0,0-32.11,10.33,110.3,110.3,0,0,0-27.61-10.06V124.1A1.85,1.85,0,0,1,208.62,122.25Zm-38.76,47.07a1.84,1.84,0,0,1,1.85-1.84H198V179H178.79a4.22,4.22,0,0,0-4.29,4.42,4.56,4.56,0,0,0,1.07,3,4.08,4.08,0,0,0,3.22,1.41H198V199H178.79a4.41,4.41,0,0,0,0,8.82H198v11.33a105.42,105.42,0,0,0-28.09-.06ZM257,273.21l0,0c-19.21,19.93-45.9,31.6-73.25,31.6a99.41,99.41,0,0,1-28.23-4.12,98.08,98.08,0,0,1-43-26h0a61.23,61.23,0,0,1-7.26-8.43l-.85-1.23c20.38-23.2,48.37-37.58,79.27-37.58,31.21,0,59.49,14.65,79.92,38.27l-.29.38A50.55,50.55,0,0,1,257,273.21Zm25.18-44.53A96,96,0,0,1,269.14,258l-.05.07a125.24,125.24,0,0,0-27.15-22.92c.54.33,1.12.66,1.65,1A100.43,100.43,0,0,1,281.65,228,.58.58,0,0,1,282.21,228.68Z"/><path class="cls-2" d="M353.2,186.09H342.59a4.35,4.35,0,0,0-3,1.08,3.87,3.87,0,0,0,0,5.73,4.4,4.4,0,0,0,3,1.08h6.49v8a15,15,0,0,1-7.8,2.24,13.78,13.78,0,0,1-7.43-2.12,15.6,15.6,0,0,1-5.44-5.81,17.17,17.17,0,0,1,0-16.16,15.62,15.62,0,0,1,5.44-5.84,13.78,13.78,0,0,1,7.43-2.12,14.54,14.54,0,0,1,5.24.78,15.36,15.36,0,0,1,4.19,2.66,4.32,4.32,0,0,0,2.77,1,4.12,4.12,0,0,0,2.85-1.08,3.73,3.73,0,0,0,1.27-2.86,4.66,4.66,0,0,0-.33-1.8,4,4,0,0,0-1.3-1.57,23.8,23.8,0,0,0-6.77-4,23.37,23.37,0,0,0-7.92-1.22,22.46,22.46,0,0,0-11.78,3.23,23.34,23.34,0,0,0-8.39,8.72,25.55,25.55,0,0,0,0,24.25,23.07,23.07,0,0,0,8.39,8.73,23.38,23.38,0,0,0,26.53-2,3.87,3.87,0,0,0,1.4-3.14V190.37a4.23,4.23,0,0,0-1.22-3.07A4.16,4.16,0,0,0,353.2,186.09Z"/><path class="cls-2" d="M402.21,205.74l-16-38.13a4.09,4.09,0,0,0-4-2.86,4.23,4.23,0,0,0-4,2.81l-16,38.11a5.16,5.16,0,0,0-.37,1.78,4.24,4.24,0,0,0,1.18,3,4.05,4.05,0,0,0,3.05,1.31,4.21,4.21,0,0,0,2.32-.7,4.44,4.44,0,0,0,1.61-1.89l2.92-7.17H391.5l2.84,7.1a4.07,4.07,0,0,0,1.64,2,4.28,4.28,0,0,0,2.33.69,4.23,4.23,0,0,0,4.28-4.23A5.09,5.09,0,0,0,402.21,205.74ZM376,194.43l6.28-15.32,6.16,15.32Z"/><path class="cls-2" d="M440,205.16,432,192.43a13.94,13.94,0,0,0,7-12.38,15.66,15.66,0,0,0-2-7.94,14.07,14.07,0,0,0-5.69-5.44,17.22,17.22,0,0,0-8.14-1.92H413a4.26,4.26,0,0,0-3,1.2,4.19,4.19,0,0,0-1.25,3.09v38.41a4.23,4.23,0,0,0,4.28,4.29,4.2,4.2,0,0,0,4.29-4.29V194.66h6.21l9.37,15a4.2,4.2,0,0,0,3.68,2,4.07,4.07,0,0,0,3-1.16,3.93,3.93,0,0,0,1.16-2.84A4.82,4.82,0,0,0,440,205.16Zm-22.66-32.29h5.93a7.5,7.5,0,0,1,5.43,2,6.77,6.77,0,0,1,2.08,5.17,5.83,5.83,0,0,1-2,4.64,8,8,0,0,1-5.47,1.85h-5.93Z"/><path class="cls-2" d="M481.8,176.14a21.45,21.45,0,0,0-8.28-8.38,24.17,24.17,0,0,0-12.06-3H451.19A4.2,4.2,0,0,0,446.9,169v38.41a4.25,4.25,0,0,0,4.29,4.29h10.27a24.14,24.14,0,0,0,12.06-3,21.48,21.48,0,0,0,8.29-8.41,24.82,24.82,0,0,0,2.94-12.1A24.56,24.56,0,0,0,481.8,176.14Zm-20.34,27.71h-6V172.64h6a15.25,15.25,0,0,1,7.75,2,13.68,13.68,0,0,1,5.28,5.49,16.93,16.93,0,0,1,1.92,8.11,17.16,17.16,0,0,1-1.92,8.14,13.67,13.67,0,0,1-5.28,5.51A15.22,15.22,0,0,1,461.46,203.85Z"/><path class="cls-2" d="M521.83,203.62H500.47V192.11h14.95a4.22,4.22,0,0,0,3-1.13,4.07,4.07,0,0,0,0-5.87,4.26,4.26,0,0,0-3-1.12H500.47V172.87h21.36a4.3,4.3,0,0,0,3-1.09,3.85,3.85,0,0,0,1.22-2.91,4.05,4.05,0,0,0-1.2-3,4.25,4.25,0,0,0-3-1.14H496.18a4.22,4.22,0,0,0-3,1.2A4.16,4.16,0,0,0,491.9,169v38.41a4.25,4.25,0,0,0,4.28,4.29h25.65a4.25,4.25,0,0,0,3-1.14,4.05,4.05,0,0,0,1.2-3,3.87,3.87,0,0,0-1.22-2.91A4.31,4.31,0,0,0,521.83,203.62Z"/><path class="cls-2" d="M569.39,166a4.17,4.17,0,0,0-3-1.22,4.19,4.19,0,0,0-4.28,4.29v27l-22.34-29.72-.06-.07a4.57,4.57,0,0,0-1.44-1.09,4.2,4.2,0,0,0-4.85.77,4.16,4.16,0,0,0-1.22,3.07v38.41a4.17,4.17,0,0,0,4.23,4.29,4.2,4.2,0,0,0,4.29-4.29v-27L563,210.16a3.36,3.36,0,0,0,1.6,1.23,4.84,4.84,0,0,0,1.76.35,4.15,4.15,0,0,0,4.23-4.29V169A4.19,4.19,0,0,0,569.39,166Z"/><path class="cls-2" d="M630.54,199.82a4.59,4.59,0,0,0-2.67,1,16,16,0,0,1-9.64,3.47,13.78,13.78,0,0,1-7.43-2.12,15.6,15.6,0,0,1-5.44-5.81,17.17,17.17,0,0,1,0-16.16,15.62,15.62,0,0,1,5.44-5.84,13.78,13.78,0,0,1,7.43-2.12,14.54,14.54,0,0,1,5.24.78,15.51,15.51,0,0,1,4.19,2.66,4.4,4.4,0,0,0,2.83,1,4.06,4.06,0,0,0,2.79-1.08,3.73,3.73,0,0,0,1.27-2.86,4.66,4.66,0,0,0-.33-1.8,4,4,0,0,0-1.3-1.57,23.93,23.93,0,0,0-6.77-4,23.37,23.37,0,0,0-7.92-1.22,22.46,22.46,0,0,0-11.78,3.23,23.26,23.26,0,0,0-8.39,8.72,25.48,25.48,0,0,0,0,24.25,23.07,23.07,0,0,0,8.39,8.73,22.61,22.61,0,0,0,11.78,3.19A23,23,0,0,0,633,207.07l.06,0,.05-.05a4.26,4.26,0,0,0,1.3-3,4.16,4.16,0,0,0-1.07-2.92A3.67,3.67,0,0,0,630.54,199.82Z"/><path class="cls-2" d="M681.22,166a4.14,4.14,0,0,0-3-1.22,4.2,4.2,0,0,0-4.29,4.29v15H650.26V169a4.23,4.23,0,0,0-1.21-3.07,4.18,4.18,0,0,0-3.07-1.22,4.2,4.2,0,0,0-4.29,4.29v38.41a4.29,4.29,0,1,0,8.57,0V191.88h23.66v15.57a4.25,4.25,0,0,0,4.29,4.29,4.13,4.13,0,0,0,3-1.22,4.2,4.2,0,0,0,1.22-3.07V169A4.2,4.2,0,0,0,681.22,166Z"/><path class="cls-2" d="M699,166a4.18,4.18,0,0,0-3.07-1.22,4.2,4.2,0,0,0-4.29,4.29v38.41a4.23,4.23,0,0,0,4.29,4.29,4.2,4.2,0,0,0,4.28-4.29V169A4.23,4.23,0,0,0,699,166Z"/><path class="cls-2" d="M743,199.82a4.59,4.59,0,0,0-2.67,1,16,16,0,0,1-9.64,3.47,13.78,13.78,0,0,1-7.43-2.12,15.44,15.44,0,0,1-5.44-5.81,17.17,17.17,0,0,1,0-16.16,15.62,15.62,0,0,1,5.44-5.84,13.78,13.78,0,0,1,7.43-2.12,14.54,14.54,0,0,1,5.24.78,15.51,15.51,0,0,1,4.19,2.66,4.38,4.38,0,0,0,2.83,1,4.06,4.06,0,0,0,2.79-1.08,3.73,3.73,0,0,0,1.27-2.86,4.66,4.66,0,0,0-.34-1.8,3.82,3.82,0,0,0-1.3-1.57,23.66,23.66,0,0,0-6.77-4,23.27,23.27,0,0,0-7.91-1.22,22.46,22.46,0,0,0-11.78,3.23,23.26,23.26,0,0,0-8.39,8.72,24.45,24.45,0,0,0-3.07,12.09,24.78,24.78,0,0,0,3.06,12.16,23.17,23.17,0,0,0,8.4,8.73,22.61,22.61,0,0,0,11.78,3.19,23,23,0,0,0,14.74-5.23l.06,0,0-.05a4.26,4.26,0,0,0,1.3-3,4.16,4.16,0,0,0-1.07-2.92A3.67,3.67,0,0,0,743,199.82Z"/><path class="cls-2" d="M800.83,172.54a14.52,14.52,0,0,0-5.68-5.74,16.36,16.36,0,0,0-8.17-2.05H775.63a4.25,4.25,0,0,0-3,1.2,4.2,4.2,0,0,0-1.26,3.09v38.41a4.29,4.29,0,1,0,8.57,0V196.36H787a16.84,16.84,0,0,0,8.16-2,14.33,14.33,0,0,0,5.68-5.56,16,16,0,0,0,2-8A16.9,16.9,0,0,0,800.83,172.54ZM787,188.24h-7.07V172.87H787a7.08,7.08,0,0,1,5.39,2.2,7.84,7.84,0,0,1,2.12,5.71,7.16,7.16,0,0,1-2.1,5.38A7.3,7.3,0,0,1,787,188.24Z"/><path class="cls-2" d="M839,203.62H817.59V192.11h14.95a4.21,4.21,0,0,0,3-1.13,4.07,4.07,0,0,0,0-5.87,4.24,4.24,0,0,0-3-1.12H817.59V172.87H839a4.3,4.3,0,0,0,3-1.09,3.85,3.85,0,0,0,1.22-2.91,4.05,4.05,0,0,0-1.2-3,4.25,4.25,0,0,0-3-1.14H813.3a4.22,4.22,0,0,0-3,1.2A4.16,4.16,0,0,0,809,169v38.41a4.25,4.25,0,0,0,4.28,4.29H839a4.25,4.25,0,0,0,3-1.14,4.05,4.05,0,0,0,1.2-3,3.87,3.87,0,0,0-1.22-2.91A4.31,4.31,0,0,0,839,203.62Z"/><path class="cls-2" d="M880.54,205.16l-7.91-12.73a13.89,13.89,0,0,0,4.77-4.5,14.16,14.16,0,0,0,2.26-7.88,15.65,15.65,0,0,0-2-7.94,14.07,14.07,0,0,0-5.69-5.44,17.23,17.23,0,0,0-8.15-1.92H853.59a4.25,4.25,0,0,0-3,1.2A4.2,4.2,0,0,0,849.3,169v38.41a4.33,4.33,0,0,0,7.38,3,4.23,4.23,0,0,0,1.2-3V194.66h6.2l9.38,15a4.2,4.2,0,0,0,3.68,2,4.09,4.09,0,0,0,3-1.16,3.93,3.93,0,0,0,1.16-2.84A4.79,4.79,0,0,0,880.54,205.16Zm-22.66-32.29h5.92a7.51,7.51,0,0,1,5.44,2,6.77,6.77,0,0,1,2.08,5.17,5.83,5.83,0,0,1-2,4.64,8,8,0,0,1-5.48,1.85h-5.92Z"/><path class="cls-2" d="M905.62,162.54a4.06,4.06,0,0,0,2.93-1.18l5.47-5.47a3.93,3.93,0,0,0,1.22-3,4.22,4.22,0,0,0-1.2-3,4.07,4.07,0,0,0-3-1.26,4.17,4.17,0,0,0-3,1.24l-5.59,5.6a4,4,0,0,0-1,2.83,4.18,4.18,0,0,0,1.17,3A4.13,4.13,0,0,0,905.62,162.54Z"/><path class="cls-2" d="M923.79,166a4.17,4.17,0,0,0-3-1.22,4.26,4.26,0,0,0-3,1.2,4.19,4.19,0,0,0-1.25,3.09v26.5a8.16,8.16,0,0,1-1.35,4.65,9.19,9.19,0,0,1-3.8,3.25,13.09,13.09,0,0,1-5.72,1.2,14.14,14.14,0,0,1-6-1.21,9.48,9.48,0,0,1-3.94-3.25,8.05,8.05,0,0,1-1.39-4.64V169a4.29,4.29,0,1,0-8.57,0v26.5a15.87,15.87,0,0,0,2.58,8.9,17.1,17.1,0,0,0,7.12,6.06,23.55,23.55,0,0,0,10.19,2.15,22.44,22.44,0,0,0,9.92-2.15,16.87,16.87,0,0,0,7-6.1,16.15,16.15,0,0,0,2.51-8.86V169A4.23,4.23,0,0,0,923.79,166Z"/><path class="cls-2" d="M457.8,241.19A6.67,6.67,0,0,0,460,239.1a6.74,6.74,0,0,0,1-3.7,7.35,7.35,0,0,0-.93-3.71,6.48,6.48,0,0,0-2.63-2.56,7.84,7.84,0,0,0-3.75-.9H449a2,2,0,0,0-2,2v17.91a2,2,0,0,0,.58,1.44,1.93,1.93,0,0,0,1.42.59,2,2,0,0,0,1.45-.59,2.1,2.1,0,0,0,.56-1.44v-5.93h2.78l4.29,7a1.94,1.94,0,0,0,1.72,1,1.86,1.86,0,0,0,1.95-1.9,2.28,2.28,0,0,0-.36-1.22ZM451,232.24h2.88a3.66,3.66,0,0,1,2.66,1,3.3,3.3,0,0,1,1,2.53,2.85,2.85,0,0,1-1,2.26,3.87,3.87,0,0,1-2.68.91H451Z"/><path class="cls-2" d="M482.81,232.24a1.92,1.92,0,0,0,1.4-.54,1.94,1.94,0,0,0,.57-1.44,2,2,0,0,0-.56-1.46,1.88,1.88,0,0,0-1.41-.57H471.05a1.94,1.94,0,0,0-1.41.6,2.08,2.08,0,0,0-.59,1.52v18.47a2.13,2.13,0,0,0,.58,1.5,1.91,1.91,0,0,0,1.42.61h11.76a1.91,1.91,0,0,0,1.41-.56,2,2,0,0,0,.56-1.47,1.88,1.88,0,0,0-2-2h-9.76v-5.34h7.19a2.07,2.07,0,0,0,1.47-.56,2,2,0,0,0,0-2.9,2.11,2.11,0,0,0-1.47-.55h-7.19v-5.34Z"/><path class="cls-2" d="M500,232.47a6.24,6.24,0,0,1,3.48-1.05,6.41,6.41,0,0,1,2.45.39,7,7,0,0,1,2,1.32,2,2,0,0,0,1.33.52,1.89,1.89,0,0,0,1.36-.55,1.93,1.93,0,0,0,.61-1.45,2.38,2.38,0,0,0-.16-.91,1.88,1.88,0,0,0-.62-.8,11,11,0,0,0-3.2-2,10.53,10.53,0,0,0-3.73-.61A10.19,10.19,0,0,0,497.9,229a11.39,11.39,0,0,0-4,4.35,13.33,13.33,0,0,0,0,12.09,11.21,11.21,0,0,0,4,4.36,10.57,10.57,0,0,0,12.53-1,2,2,0,0,0,.67-1.59v-6.74a2.23,2.23,0,0,0-.58-1.56,2,2,0,0,0-1.45-.61h-5a2.05,2.05,0,0,0-1.45.54,2.08,2.08,0,0,0,0,2.92,2.05,2.05,0,0,0,1.45.54h3v3.93a6.82,6.82,0,0,1-3.63,1.09,6.16,6.16,0,0,1-3.48-1.05,7.64,7.64,0,0,1-2.55-2.87,8.64,8.64,0,0,1-.94-4,8.54,8.54,0,0,1,.95-4A7.45,7.45,0,0,1,500,232.47Z"/><path class="cls-2" d="M528.63,230a2,2,0,0,0-1.93-1.37,2,2,0,0,0-1.92,1.35l-7.52,17.93a2.56,2.56,0,0,0-.17.85,2,2,0,0,0,.56,1.43,2,2,0,0,0,2.58.29,2.14,2.14,0,0,0,.79-.93l1.35-3.32h8.68l1.33,3.32a1.94,1.94,0,0,0,.6.81,2.09,2.09,0,0,0,1.3.46,2,2,0,0,0,1.46-.6,2,2,0,0,0,.6-1.43,2.31,2.31,0,0,0-.19-.84Zm-4.78,12.22,2.9-7.06,2.83,7.06Z"/><path class="cls-2" d="M556,246.26h-8.82V230.65a2,2,0,0,0-.58-1.42,2,2,0,0,0-1.43-.58,2,2,0,0,0-2,2v17.61a2,2,0,0,0,.56,1.42,2,2,0,0,0,1.43.58H556a2,2,0,0,0,1.44-.58,2,2,0,0,0,0-2.84A2,2,0,0,0,556,246.26Z"/><path class="cls-2" d="M575.23,230a2,2,0,0,0-1.94-1.37,2,2,0,0,0-1.92,1.35l-7.51,17.93a2.36,2.36,0,0,0-.18.85,2,2,0,0,0,.57,1.43,2,2,0,0,0,2.57.29,2.08,2.08,0,0,0,.79-.93l1.35-3.32h8.69l1.32,3.32a1.88,1.88,0,0,0,.61.81,2.07,2.07,0,0,0,2.76-.14,2,2,0,0,0,.59-1.43,2.49,2.49,0,0,0-.18-.84Zm-4.79,12.22,2.9-7.06,2.84,7.06Z"/><path class="cls-2" d="M616.54,238.22a5,5,0,0,0,1-1.1,4.68,4.68,0,0,0,.82-2.71,5.92,5.92,0,0,0-.88-3.2,6,6,0,0,0-2.42-2.2,7.6,7.6,0,0,0-3.46-.78h-6.33a2,2,0,0,0-1.45.58,2,2,0,0,0-.59,1.47v17.94a2,2,0,0,0,2,2h6.89a8.19,8.19,0,0,0,3.81-.87,6.53,6.53,0,0,0,2.68-2.47,6.78,6.78,0,0,0,1-3.58,5.67,5.67,0,0,0-1.18-3.65A5.49,5.49,0,0,0,616.54,238.22Zm-4.27,8.71h-5v-6h5a4.3,4.3,0,0,1,2.71.76,2.44,2.44,0,0,1,.9,2.08,2.84,2.84,0,0,1-.94,2.32A3.94,3.94,0,0,1,612.27,246.93Zm1.39-10.64a3.28,3.28,0,0,1-2.1.62h-4.33v-4.67h4.33a3.32,3.32,0,0,1,2.1.61,2.05,2.05,0,0,1,.7,1.71A2.09,2.09,0,0,1,613.66,236.29Z"/><path class="cls-2" d="M629.93,228.75a2,2,0,0,0-2,2v17.61a1.93,1.93,0,0,0,.59,1.42,2,2,0,0,0,1.42.58,1.93,1.93,0,0,0,1.44-.59,2,2,0,0,0,.56-1.41V230.75a1.95,1.95,0,0,0-2-2Z"/><path class="cls-2" d="M655,232.24a1.94,1.94,0,0,0,1.41-.54,2,2,0,0,0,.57-1.44,2,2,0,0,0-.56-1.46,1.91,1.91,0,0,0-1.42-.57H643.28a1.93,1.93,0,0,0-1.41.59,2.12,2.12,0,0,0-.59,1.53v18.47a2.13,2.13,0,0,0,.58,1.5,1.91,1.91,0,0,0,1.42.61H655a1.92,1.92,0,0,0,1.42-.56,2,2,0,0,0,.56-1.47,1.89,1.89,0,0,0-2-2h-9.75v-5.34h7.19a2.09,2.09,0,0,0,1.47-.56,2,2,0,0,0,0-2.9,2.13,2.13,0,0,0-1.47-.55h-7.19v-5.34Z"/><path class="cls-2" d="M681.34,228.48a2,2,0,0,0-1.42.56,2,2,0,0,0-.59,1.46v12.6l-10.44-13.88a2.06,2.06,0,0,0-.68-.51,1.88,1.88,0,0,0-.88-.22,2,2,0,0,0-1.44.58,2,2,0,0,0-.58,1.47v18.07a2,2,0,0,0,3.44,1.43,2,2,0,0,0,.56-1.43V236l10.38,13.81a1.7,1.7,0,0,0,.78.61,2.28,2.28,0,0,0,.84.16,2,2,0,0,0,1.44-.58,2,2,0,0,0,.58-1.47V230.5a2,2,0,0,0-.57-1.45A2,2,0,0,0,681.34,228.48Z"/><path class="cls-2" d="M706.43,232.24a1.94,1.94,0,0,0,1.41-.54,2,2,0,0,0,.57-1.44,2,2,0,0,0-.56-1.46,1.91,1.91,0,0,0-1.42-.57H694.68a1.93,1.93,0,0,0-1.41.59,2.12,2.12,0,0,0-.59,1.53v18.47a2.13,2.13,0,0,0,.58,1.5,1.91,1.91,0,0,0,1.42.61h11.75a1.92,1.92,0,0,0,1.42-.56,2,2,0,0,0,.56-1.47,1.89,1.89,0,0,0-2-2h-9.75v-5.34h7.19a2.09,2.09,0,0,0,1.47-.56,2,2,0,0,0,0-2.9,2.13,2.13,0,0,0-1.47-.55h-7.19v-5.34Z"/><path class="cls-2" d="M724.94,237.36c-2.21-.23-3.2-.71-3.64-1.08a2.26,2.26,0,0,1-.88-1.81,1.88,1.88,0,0,1,.94-1.72,5.55,5.55,0,0,1,2.93-.68,4.82,4.82,0,0,1,2.4.53,4.4,4.4,0,0,1,1.55,1.57,2.05,2.05,0,0,0,.79.81,2.16,2.16,0,0,0,1.08.29,1.94,1.94,0,0,0,1.08-.31,1.79,1.79,0,0,0,.82-1.51,2.48,2.48,0,0,0-.43-1.31,8.58,8.58,0,0,0-2.89-2.89,8.18,8.18,0,0,0-4.21-1,11.28,11.28,0,0,0-4.05.7,6.76,6.76,0,0,0-2.95,2.11,5.3,5.3,0,0,0-1.12,3.36,5.75,5.75,0,0,0,2.13,4.55,9.77,9.77,0,0,0,5.57,2.09,5.61,5.61,0,0,1,3.2,1.15,2.78,2.78,0,0,1,1,2.12,2.18,2.18,0,0,1-1.09,2,5.33,5.33,0,0,1-3,.81,6.16,6.16,0,0,1-2.82-.65,3.28,3.28,0,0,1-1.59-1.43,2.14,2.14,0,0,0-.81-1,2.17,2.17,0,0,0-1.19-.37,1.13,1.13,0,0,0-.4,0,2.2,2.2,0,0,0-1.15.6,1.67,1.67,0,0,0-.47,1.17,2.16,2.16,0,0,0,.18.79,7,7,0,0,0,3.22,3.4,10.31,10.31,0,0,0,5,1.26,10.79,10.79,0,0,0,3.95-.73,7,7,0,0,0,3.05-2.27,6,6,0,0,0,1.17-3.7,6.17,6.17,0,0,0-2-4.76A9,9,0,0,0,724.94,237.36Z"/><path class="cls-2" d="M753,228.23H739.11a1.83,1.83,0,0,0-1.36.58,2.16,2.16,0,0,0,0,2.86,1.84,1.84,0,0,0,1.36.57h5v16.68a2.13,2.13,0,0,0,.58,1.5,2,2,0,0,0,2.84,0,2.13,2.13,0,0,0,.58-1.5V232.24H753a1.83,1.83,0,0,0,1.36-.57,2,2,0,0,0,.54-1.43,2,2,0,0,0-.54-1.43A1.8,1.8,0,0,0,753,228.23Z"/><path class="cls-2" d="M769.67,230a2,2,0,0,0-1.94-1.37,2,2,0,0,0-1.92,1.35l-7.51,17.93a2.36,2.36,0,0,0-.18.85,2,2,0,0,0,.57,1.43,2,2,0,0,0,2.57.29,2.13,2.13,0,0,0,.79-.93l1.35-3.32h8.69l1.33,3.32a1.83,1.83,0,0,0,.61.82,2.09,2.09,0,0,0,1.29.45,2,2,0,0,0,1.46-.6,2,2,0,0,0,.59-1.43,2.27,2.27,0,0,0-.18-.84Zm-4.79,12.22,2.9-7.06,2.84,7.06Z"/><path class="cls-2" d="M799.19,247.09l-3.61-5.9a6.57,6.57,0,0,0,2.17-2.09,6.74,6.74,0,0,0,1-3.7,7.46,7.46,0,0,0-.93-3.71,6.55,6.55,0,0,0-2.63-2.56,7.87,7.87,0,0,0-3.75-.9H786.8a2,2,0,0,0-2,2v17.91a2,2,0,0,0,.58,1.44,2,2,0,0,0,2.86,0,2.05,2.05,0,0,0,.56-1.44v-5.93h2.79l4.28,7a2,2,0,0,0,1.72,1,1.86,1.86,0,0,0,1.95-1.9A2.36,2.36,0,0,0,799.19,247.09ZM788.8,232.24h2.89a3.69,3.69,0,0,1,2.66,1,3.33,3.33,0,0,1,1,2.53,2.85,2.85,0,0,1-1,2.26,3.89,3.89,0,0,1-2.68.91H788.8Z"/></svg>