<svg id="Capa_1" data-name="Capa 1" xmlns="http://www.w3.org/2000/svg" viewBox="0 0 1080 1080"><defs><style>.cls-1{fill:#35405e;}.cls-2{fill:#fff;}</style></defs><rect class="cls-1" width="1080" height="1080"/><path class="cls-2" d="M365.43,468.15c-4.58.74-9.18,1.69-13.66,2.83s-8.92,2.46-13.25,4-8.59,3.21-12.81,5.1-8.32,3.95-12.32,6.17-8,4.65-11.78,7.2-7.6,5.31-11.23,8.19-7.21,6-10.63,9.14-6.79,6.57-10,10-6.33,7.14-9.31,10.92c-2.84,3.59-5.54,7.22-8.12,10.94-1.06,1.54-2.13,3.09-3.11,4.7a36.57,36.57,0,0,0-2.6,5,12.83,12.83,0,0,0,1.57,12.42,14.48,14.48,0,0,0,4.92,4.21,19.53,19.53,0,0,0,6.41,1.9,92,92,0,0,0,14.5,1c2.57,0,5.13-.06,7.66-.13a169.46,169.46,0,0,0,20.88-1.9,165.58,165.58,0,0,0,20.15-4.44,161,161,0,0,0,69.63-41.34,168.23,168.23,0,0,0,13.78-15.76,174.39,174.39,0,0,0,12-17.75c.61-1,1.21-2.06,1.8-3.11a13.09,13.09,0,0,0,.41-12.63A15.12,15.12,0,0,0,408.4,467c-4.85-.5-9.75-.8-14.57-.88l-2.75,0c-3.88,0-7.79.14-11.62.42C374.76,466.86,370,467.41,365.43,468.15ZM287,541c23.26-27.46,55.46-44,91.79-47.09a1.78,1.78,0,0,1,1.49,2.88c-23.26,27.47-55.47,44-91.78,47.09A1.78,1.78,0,0,1,287,541Z"/><path class="cls-2" d="M641.59,378.24H765.38c8.69,0,13.24-6.85,13.24-13.61S774.07,351,765.38,351H641.59c-8.7,0-13.25,6.85-13.25,13.62S632.89,378.24,641.59,378.24Z"/><path class="cls-2" d="M641.59,440.2H765.38c8.69,0,13.24-6.85,13.24-13.61S774.07,413,765.38,413H641.59c-8.7,0-13.25,6.85-13.25,13.62S632.89,440.2,641.59,440.2Z"/><path class="cls-2" d="M641.59,502.16H765.38c8.69,0,13.24-6.85,13.24-13.62s-4.55-13.6-13.24-13.6H641.59c-8.7,0-13.25,6.85-13.25,13.61S632.89,502.16,641.59,502.16Z"/><path class="cls-2" d="M641.59,564.11H765.38c8.69,0,13.24-6.84,13.24-13.61s-4.55-13.6-13.24-13.6H641.59c-8.7,0-13.25,6.85-13.25,13.61S632.89,564.11,641.59,564.11Z"/><path class="cls-2" d="M266.84,248c-.75-2.1-1.55-4.19-2.41-6.25a113.16,113.16,0,0,0-8.61-16.73,124.08,124.08,0,0,0-30.48-32.74c-4.09-3.08-9.63-3.21-14.53.33a15.82,15.82,0,0,0-6.23,12.92V364.84a16,16,0,0,0,6.21,13c4.88,3.57,10.45,3.45,14.55.36,15.75-11.92,27.77-25.93,35.72-41.64A111.46,111.46,0,0,0,266.84,248ZM240.78,327.7a88.08,88.08,0,0,1-10.36,15.86,1.73,1.73,0,0,1-3-1.12V228.08a1.73,1.73,0,0,1,3-1.12,88.08,88.08,0,0,1,10.36,15.86,89.84,89.84,0,0,1,9.78,42.44A89.84,89.84,0,0,1,240.78,327.7Z"/><path class="cls-2" d="M872.41,604.14A13.48,13.48,0,0,0,862,599.08q-5.25-.15-10.55-.15c-9.46,0-19.07.37-28.59,1.09V286.41a13.65,13.65,0,0,0-13.61-13.61H597.7a13.65,13.65,0,0,0-13.61,13.61v126H483.78A13.65,13.65,0,0,0,470.17,426V603.63C396.69,619.43,330.72,659.57,279,716.42c-40-64.5-54.22-139.25-42.86-216.1,49-7.79,92.11-35.72,118.38-76.87,26.66-41.76,33.65-93.67,19.17-142.42A14.48,14.48,0,0,0,360.23,271a11.77,11.77,0,0,0-6.74,2.11C286,319.76,239.19,382.78,218.12,455.33c-2.36,8.11-6.23,24.93-8,34.61A346.38,346.38,0,0,0,223.1,662.08c19.24,56.7,52.71,107,96.78,145.56,5.11,4.46,10.41,8.81,15.72,12.9C393.76,865.32,467.11,890,542.14,890h0c74.34,0,147.18-24.28,205.1-68.35a336.86,336.86,0,0,0,66.47-67.37,12.52,12.52,0,0,0,4.08-5.68,345.15,345.15,0,0,0,57.3-132.49A14.53,14.53,0,0,0,872.41,604.14ZM349.48,309.82a1.78,1.78,0,0,1,2.84,1.13c10.64,75.64-37,144.91-110.68,160.85C260.25,407.23,297.42,351.39,349.48,309.82ZM617,300H790a5.7,5.7,0,0,1,5.7,5.69V603.1c-36.6,5.54-69.9,16.28-99.14,31.89a341.6,341.6,0,0,0-85.21-31.07V305.71A5.69,5.69,0,0,1,617,300ZM497.39,445.31a5.69,5.69,0,0,1,5.69-5.69h81v35.45H525c-8.7,0-13.25,6.85-13.25,13.62a14.15,14.15,0,0,0,3.29,9.25,12.71,12.71,0,0,0,10,4.35h59.13V536.9H525c-8.7,0-13.25,6.85-13.25,13.61s4.55,13.6,13.25,13.6h59.13v35a324.42,324.42,0,0,0-86.7-.18ZM766.43,766l-.06-.07c-59.29,61.49-141.65,97.51-226.08,97.51a306.25,306.25,0,0,1-87.13-12.71,302.66,302.66,0,0,1-132.7-80.36v0a187.72,187.72,0,0,1-22.4-26c-.92-1.33-1.8-2.58-2.64-3.78,62.9-71.61,149.32-116,244.68-116,96.34,0,183.62,45.24,246.68,118.15l-.88,1.17C773.77,759.73,766.43,766,766.43,766Zm77.74-137.45c-8.85,33-21.38,61.81-40.35,90.36l-.14.22a386.4,386.4,0,0,0-83.83-70.75c1.68,1,3.46,2,5.09,3.06,34.42-15.34,74.77-24,117.48-25.1A1.77,1.77,0,0,1,844.17,628.52Z"/></svg>