<?xml version="1.0" encoding="UTF-8"?>
<svg width="60px" height="92px" viewBox="0 0 60 92" version="1.1" xmlns="http://www.w3.org/2000/svg" xmlns:xlink="http://www.w3.org/1999/xlink">
    <!-- Generator: Sketch 43.2 (39069) - http://www.bohemiancoding.com/sketch -->
    <title>Combined Shape</title>
    <desc>Created with Sketch.</desc>
    <defs></defs>
    <g id="Home" stroke="none" stroke-width="1" fill="none" fill-rule="evenodd">
        <g id="Home---Clasic" transform="translate(-687.000000, -598.000000)" fill="#F2EDE5">
            <g id="Slider" transform="translate(-3.000000, 121.000000)">
                <g id="info" transform="translate(363.000000, 65.000000)">
                    <path d="M381.046992,436.488235 L381.048091,436.488066 C382.944498,441.029407 382.40006,444.128057 381.91659,446.496512 C382.715262,446.654521 384.180442,446.756436 384.965328,446.909459 C384.926895,448.762185 383.644655,450.983096 383.322986,452.001221 C383.93887,452.389552 385.627836,451.801952 386.255194,452.186333 C386.213467,453.490072 386.044416,454.834617 385.888069,456.198862 C386.623977,462.313473 384.40166,467.412196 380.109172,472.010035 C375.364787,477.135103 370.375858,480.671409 364.92559,481.919204 C362.903987,482.398396 360.822468,483.038599 358.852256,483.623948 C357.339657,483.971448 355.874245,484.434765 354.356585,484.79598 C353.911729,491.666494 349.562333,497.846503 341.552538,503.512036 L340.348131,501.161918 C347.23879,496.072816 351.188488,490.511579 352.04649,484.432778 C351.299786,484.101543 350.565178,483.772819 349.949259,483.384502 C345.461469,480.728724 341.050821,478.196972 336.974917,475.189776 C331.003474,470.200744 328.433467,465.451603 328.223556,460.879071 C327.260756,454.026273 328.1801,448.898269 330.898766,445.092192 C331.062224,442.338641 332.379643,439.12171 334.323674,435.431505 C335.262071,434.797636 337.308355,436.015083 337.755876,434.943133 C339.020233,432.458228 340.127928,429.063533 341.73593,426.676386 C342.639655,427.066203 343.730332,428.067093 344.729211,428.388061 C346.23859,426.06496 348.410915,423.119516 350.819913,420.899334 C355.576187,418.319819 358.998411,415.29518 361.44443,412.060307 C363.270758,415.63188 363.812044,419.179851 369.464954,426.597384 C370.135712,426.531539 371.425324,426.018444 371.996207,426.003492 C373.126533,427.690132 374.102463,429.306127 373.613893,430.837276 C374.465166,430.828523 375.300354,430.805893 376.206678,430.628913 C377.24231,432.649127 377.418506,435.230948 377.550732,437.147238 C378.568799,437.190719 380.027347,436.442323 381.046992,436.488235 Z M358.320779,459.744156 L369,449.064935 L366.92987,447 L356.255844,457.679221 L346.064935,447.487013 L344,449.551948 L356.255844,461.809091 L358.320779,459.744156 Z" id="Combined-Shape"></path>
                </g>
            </g>
        </g>
    </g>
</svg>