<?xml version="1.0" encoding="utf-8"?>
<!-- Generator: Adobe Illustrator 19.0.0, SVG Export Plug-In . SVG Version: 6.00 Build 0)  -->
<svg version="1.1" id="Capa_1" xmlns="http://www.w3.org/2000/svg" xmlns:xlink="http://www.w3.org/1999/xlink" x="0px" y="0px"
	 viewBox="0 0 425.2 425.2" style="enable-background:new 0 0 425.2 425.2;" xml:space="preserve">
<style type="text/css">
	.st0{fill:#E52629;}
	.st1{fill:#020203;}
	.st2{fill:#FFFFFF;}
</style>
<g>
	<path id="XMLID_53_" class="st0" d="M182,191.6h10.6c2.5,0,3.7-1.4,3.9-3.9c0-2.5-1.4-3.9-3.9-3.9H182c-7.8,0-11.7,3.5-11.7,10.4
		c0,7.1,3.9,10.6,11.7,10.6h2.5c2.5,0,3.9,0.9,3.9,2.8c0,1.8-1.4,2.8-3.9,2.8h-10.6c-2.5,0-3.9,1.4-3.9,4.1c0,2.5,1.2,3.7,3.9,3.7
		h10.6c7.8,0,11.7-3.5,11.7-10.4c0-6.9-3.9-10.4-11.7-10.6H182c-2.8,0-4.1-0.9-3.9-2.5C178,192.3,179.4,191.6,182,191.6z"/>
	<path class="st0" d="M218.8,183.6h-5.3c-7.8,0-12,3.9-12,11.7v10.4c0,7.8,3.9,11.7,11.7,12h5.3c7.8,0,11.7-3.9,12-12v-10.1
		C230.6,187.7,226.6,183.8,218.8,183.6L218.8,183.6z M222.7,205.9c0,2.8-1.4,3.9-3.9,3.9h-5.3c-2.5,0-3.9-1.4-3.9-4.1v-10.4
		c0-2.5,1.4-3.9,3.9-3.9h5.3c2.8,0,3.9,1.4,3.9,3.9V205.9z"/>
	<path id="XMLID_50_" class="st0" d="M243.7,209.8l0.2-32.7c0-2.8-1.4-3.9-3.9-4.1c-2.5,0-3.9,1.4-3.9,3.9l-0.2,36.6
		c0,2.5,1.4,3.9,3.9,3.9h3.9c2.5,0,3.9-1.4,3.9-3.9C247.6,211.2,246.2,209.8,243.7,209.8z"/>
	<path id="XMLID_49_" class="st0" d="M278.3,183.6c-2.8,0-3.9,1.4-4.1,3.9l-0.2,22.3h-9.2c-2.8,0-3.9-1.4-3.9-4.1l0.2-18.2
		c0-2.8-1.4-3.9-3.9-3.9c-2.5,0-3.9,1.4-3.9,3.9v18.2c0,8.1,3.9,12.2,11.7,12.2H278c2.5,0,3.9-1.2,3.9-3.9l0.2-26.3
		C281.9,185,280.8,183.6,278.3,183.6z"/>
	<path id="XMLID_48_" class="st0" d="M301.8,191.4c2.8,0,3.9-1.4,3.9-3.9c0-2.5-1.4-3.9-4.1-3.9h-6.5v-3.9c0-2.5-1.2-3.9-3.9-3.9
		c-2.5,0-3.9,1.4-3.9,3.9l-0.2,26c0,8.1,3.9,12.2,11.7,12.2h2.8c2.5,0,3.9-1.4,3.9-3.9c0-2.5-1.2-3.9-3.9-3.9h-2.8
		c-2.8,0-3.9-1.4-3.9-4.1v-14.5L301.8,191.4z"/>
	<path id="XMLID_47_" class="st0" d="M318.8,183.6h-3.9c-2.5,0-3.9,1.4-3.9,4.1c0,2.5,1.2,3.9,3.9,3.9l-0.2,22.1
		c0,2.8,1.4,3.9,3.9,3.9c2.5,0,3.9-1.4,3.9-3.9l0.2-26.3C322.7,185,321.6,183.8,318.8,183.6z"/>
	<path class="st0" d="M345.1,183.6h-5.3c-7.8,0-12,3.9-12,11.7v10.4c0,7.8,3.9,11.7,11.7,12h5.3c7.8,0,11.7-3.9,12-12v-10.1
		C357,187.7,353.1,183.8,345.1,183.6L345.1,183.6z M349,205.9c0,2.8-1.4,3.9-3.9,3.9h-5.3c-2.5,0-3.9-1.4-3.9-4.1v-10.4
		c0-2.5,1.4-3.9,3.9-3.9h5.3c2.8,0,3.9,1.4,3.9,3.9V205.9z"/>
	<path id="XMLID_44_" class="st0" d="M379.4,183.6h-13.1c-2.5,0-3.9,1.2-3.9,3.9l-0.2,26.3c0,2.8,1.4,3.9,3.9,3.9
		c2.8,0,3.9-1.4,3.9-3.9l0.2-22.1h9.2c2.8,0,3.9,1.4,3.9,4.1l-0.2,18.2c0,2.8,1.4,3.9,3.9,3.9c2.5,0,3.9-1.4,3.9-3.9v-18.2
		C391.1,187.7,387.2,183.6,379.4,183.6z"/>
	<path id="XMLID_43_" class="st1" d="M313.7,167c-1.2,0.5-2.1,1.4-2.5,2.5c-0.7,1.2-0.9,2.3-0.9,3.5c0,1.2,0.2,2.3,0.9,3.5
		c0.7,1.2,1.4,1.8,2.5,2.5c1.2,0.7,2.3,0.9,3.5,0.9s2.3-0.2,3.5-0.9c1.2-0.7,1.8-1.4,2.5-2.5s0.9-2.3,0.9-3.5c0-1.2-0.2-2.3-0.9-3.5
		c-0.7-1.2-1.4-2.1-2.5-2.5c-1.2-0.7-2.3-0.9-3.5-0.9S314.9,166.5,313.7,167z"/>
	<path id="XMLID_42_" class="st1" d="M34.3,213.5l0.2-26.3c0-2.5,1.4-3.9,3.9-3.9h13.1c7.8,0,11.7,4.1,11.7,12.2l-0.2,18.2
		c0,2.5-1.4,3.9-3.9,3.9c-2.5,0-3.9-1.4-3.9-3.9l0.2-18.2c0-2.8-1.4-4.1-3.9-4.1h-9.2l-0.2,22.1c0,2.8-1.4,3.9-3.9,3.9
		C35.7,217.7,34.3,216.3,34.3,213.5z"/>
	<path id="XMLID_41_" class="st1" d="M97.4,214c0,2.5-1.4,3.9-3.9,3.9H80.4c-7.8,0-11.7-4.1-11.7-12.2l0.2-18.2
		c0-2.5,1.4-3.9,3.9-3.9l21,0.2c2.8,0,4.1,1.4,4.1,3.9c0,2.5-1.4,3.9-4.1,3.9l-17-0.2v5.3h11.7c2.8,0,3.9,1.4,3.9,4.1
		c0,2.5-1.4,3.9-3.9,3.9h-12v1.4c0,2.8,1.4,3.9,3.9,4.1h13.1C96.2,209.8,97.6,211.2,97.4,214z"/>
	<path id="XMLID_40_" class="st1" d="M114.4,217.4c-7.8,0-11.7-4.1-11.7-12.2V187c0-2.5,1.4-3.9,3.9-3.9c2.5,0,3.9,1.4,3.9,3.9
		l-0.2,18.2c0,2.8,1.4,4.1,3.9,4.1h6.5V187c0-2.5,1.4-3.9,3.9-3.9c2.5,0,3.9,1.4,3.9,3.9v18.2c0,2.8,1.4,4.1,3.9,4.1h6.5l0.2-22.1
		c0-2.8,1.4-3.9,3.9-3.9c2.5,0,3.9,1.4,3.9,3.9l-0.2,26.3c0,2.5-1.4,3.9-4.1,3.9L114.4,217.4z"/>
	<rect id="XMLID_39_" x="34.3" y="225.5" class="st1" width="356.6" height="33.6"/>
	<polygon id="XMLID_38_" class="st2" points="43.7,233.3 55.9,233.3 55.9,238.2 50.4,238.2 50.4,240 55.2,240 55.2,244.6 
		50.4,244.6 50.4,246.5 55.9,246.5 55.9,251.3 43.7,251.3 	"/>
	<path id="XMLID_37_" class="st2" d="M73.9,233.3h6.2l6,9.9h0.2c-0.2-1.6-0.5-3-0.5-4.6v-5.3h6.2v18h-6.2l-5.8-9.4h-0.2
		c0.2,1.2,0.5,2.3,0.5,3.7v5.8h-6.5V233.3z"/>
	<path id="XMLID_36_" class="st2" d="M129.2,240.7c0,3,0,5.3-2.1,7.6c-1.8,2.1-4.8,3.2-7.6,3.2c-5.5,0-9.9-3.5-9.9-9.2
		c0-6,4.4-9.4,9.9-9.4c3.2,0,7.4,1.6,8.8,4.6l-6.2,2.3c-0.5-0.9-1.4-1.4-2.5-1.4c-2.3,0-3.7,2.1-3.7,4.1c0,2.1,1.2,3.9,3.5,3.9
		c0.9,0,2.3-0.5,2.8-1.6h-3v-4.1L129.2,240.7L129.2,240.7z"/>
	<rect id="XMLID_35_" x="146.7" y="233.3" class="st2" width="6.5" height="18"/>
	<path id="XMLID_34_" class="st2" d="M171.6,233.3h6.2l6,9.9h0.2c-0.2-1.6-0.5-3-0.5-4.6v-5.3h6.2v18h-6.2l-5.8-9.4h-0.2
		c0.2,1.2,0.5,2.3,0.5,3.7v5.8h-6.2v-18H171.6z"/>
	<polygon id="XMLID_33_" class="st2" points="207.8,233.3 219.7,233.3 219.7,238.2 214.4,238.2 214.4,240 219.3,240 219.3,244.6 
		214.4,244.6 214.4,246.5 220,246.5 220,251.3 207.8,251.3 	"/>
	<polygon id="XMLID_32_" class="st2" points="237.9,233.3 250.1,233.3 250.1,238.2 244.6,238.2 244.6,240 249.7,240 249.7,244.6 
		244.6,244.6 244.6,246.5 250.1,246.5 250.1,251.3 237.9,251.3 	"/>
	<path class="st2" d="M274.6,241.4h0.5c1.2,0,2.1-0.2,2.1-1.6s-0.9-1.6-2.1-1.6h-0.5V241.4L274.6,241.4z M268.3,233.3h7.8
		c4.1,0,7.6,1.6,7.6,6.2c0,2.8-1.2,3.9-3.5,4.6v0.2c0.2,0.2,0.7,0.5,1.2,1.2l3.9,5.8h-7.6l-2.8-5.8h-0.2v5.8h-6.5V233.3z"/>
	<rect id="XMLID_29_" x="301.8" y="233.3" class="st2" width="6.5" height="18"/>
	<path id="XMLID_28_" class="st2" d="M326.4,233.3h6.2l6,9.9h0.2c-0.2-1.6-0.5-3-0.5-4.6v-5.3h6.2v18h-6.2l-5.8-9.4h-0.2
		c0.2,1.2,0.5,2.3,0.5,3.7v5.8h-6.2v-18H326.4z"/>
	<path id="XMLID_27_" class="st2" d="M381.7,240.7c0,3,0,5.3-2.1,7.6c-1.8,2.1-4.8,3.2-7.6,3.2c-5.5,0-9.9-3.5-9.9-9.2
		c0-6,4.4-9.4,9.9-9.4c3.2,0,7.4,1.6,8.8,4.6l-6.2,2.3c-0.5-0.9-1.4-1.4-2.5-1.4c-2.3,0-3.7,2.1-3.7,4.1c0,2.1,1.2,3.9,3.5,3.9
		c0.9,0,2.3-0.5,2.8-1.6h-3v-4.1L381.7,240.7L381.7,240.7z"/>
</g>
</svg>
