<?xml version="1.0" encoding="utf-8"?>
<!-- Generator: Adobe Illustrator 19.0.0, SVG Export Plug-In . SVG Version: 6.00 Build 0)  -->
<svg version="1.1" id="Capa_1" xmlns="http://www.w3.org/2000/svg" xmlns:xlink="http://www.w3.org/1999/xlink" x="0px" y="0px"
	 viewBox="0 0 425.2 425.2" style="enable-background:new 0 0 425.2 425.2;" xml:space="preserve">
<style type="text/css">
	.st0{fill:#E52629;}
	.st1{clip-path:url(#XMLID_93_);}
	.st2{fill:none;stroke:#FFFFFF;stroke-width:1.4173;stroke-miterlimit:22.9256;}
	.st3{clip-path:url(#SVGID_2_);}
	.st4{clip-path:url(#XMLID_94_);}
	.st5{clip-path:url(#XMLID_95_);}
	.st6{clip-path:url(#XMLID_96_);}
	.st7{clip-path:url(#XMLID_97_);}
	.st8{fill:none;stroke:#E52629;stroke-width:0.5737;stroke-miterlimit:22.9256;}
</style>
<g>
	<g>
		<polygon id="XMLID_91_" class="st0" points="54.8,244 68.6,200.2 50.4,200.2 54.4,179.3 110,179.3 106.1,200.2 86.3,200.2 
			75.1,244 		"/>
		<g>
			<g>
				<defs>
					<polygon id="XMLID_90_" points="54.8,244 68.6,200.2 50.4,200.2 54.4,179.3 110,179.3 106.1,200.2 86.3,200.2 75.1,244 					
						"/>
				</defs>
				<clipPath id="XMLID_93_">
					<use xlink:href="#XMLID_90_"  style="overflow:visible;"/>
				</clipPath>
				<g class="st1">
					<g>
						<line id="XMLID_89_" class="st2" x1="42.9" y1="187.4" x2="368" y2="187.4"/>
						<line id="XMLID_88_" class="st2" x1="42.9" y1="196" x2="368" y2="196"/>
						<line id="XMLID_87_" class="st2" x1="42.9" y1="204.4" x2="368" y2="204.4"/>
						<line id="XMLID_86_" class="st2" x1="42.9" y1="212.8" x2="368" y2="212.8"/>
						<line id="XMLID_85_" class="st2" x1="42.9" y1="221.4" x2="368" y2="221.4"/>
						<line id="XMLID_84_" class="st2" x1="42.9" y1="229.8" x2="368" y2="229.8"/>
						<line id="XMLID_83_" class="st2" x1="42.9" y1="238.2" x2="368" y2="238.2"/>
						<line id="XMLID_82_" class="st2" x1="42.9" y1="246.8" x2="368" y2="246.8"/>
					</g>
				</g>
			</g>
		</g>
		<path class="st0" d="M87.4,244l34.2-64.8h31.2l-9.1,64.8H128l0.7-18.2h-12.8l-7.5,18.2H87.4L87.4,244z M123.5,211.7h9.1l-0.2-12.3
			L123.5,211.7z"/>
		<g>
			<g>
				<defs>
					<path id="SVGID_1_" d="M87.4,244l34.2-64.8h31.2l-9.1,64.8H128l0.7-18.2h-12.8l-7.5,18.2H87.4L87.4,244z M123.5,211.7h9.1
						l-0.2-12.3L123.5,211.7z"/>
				</defs>
				<clipPath id="SVGID_2_">
					<use xlink:href="#SVGID_1_"  style="overflow:visible;"/>
				</clipPath>
				<g class="st3">
					<g>
						<line id="XMLID_77_" class="st2" x1="42.9" y1="187.4" x2="368" y2="187.4"/>
						<line id="XMLID_76_" class="st2" x1="42.9" y1="196" x2="368" y2="196"/>
						<line id="XMLID_75_" class="st2" x1="42.9" y1="204.4" x2="368" y2="204.4"/>
						<line id="XMLID_74_" class="st2" x1="42.9" y1="212.8" x2="368" y2="212.8"/>
						<line id="XMLID_73_" class="st2" x1="42.9" y1="221.4" x2="368" y2="221.4"/>
						<line id="XMLID_72_" class="st2" x1="42.9" y1="229.8" x2="368" y2="229.8"/>
						<line id="XMLID_71_" class="st2" x1="42.9" y1="238.2" x2="368" y2="238.2"/>
						<line id="XMLID_70_" class="st2" x1="42.9" y1="246.8" x2="368" y2="246.8"/>
					</g>
				</g>
			</g>
		</g>
		<polygon id="XMLID_69_" class="st0" points="150.1,244 163.6,179.3 183.2,179.3 179.5,204.2 195.5,204.2 199.7,179.3 217.2,179.3 
			203.2,244 184.8,244 188.6,218.6 171.8,218.6 167.8,244 		"/>
		<g>
			<g>
				<defs>
					<polygon id="XMLID_68_" points="150.1,244 163.6,179.3 183.2,179.3 179.5,204.2 195.5,204.2 199.7,179.3 217.2,179.3 
						203.2,244 184.8,244 188.6,218.6 171.8,218.6 167.8,244 					"/>
				</defs>
				<clipPath id="XMLID_94_">
					<use xlink:href="#XMLID_68_"  style="overflow:visible;"/>
				</clipPath>
				<g class="st4">
					<g>
						<line id="XMLID_67_" class="st2" x1="42.9" y1="187.4" x2="368" y2="187.4"/>
						<line id="XMLID_66_" class="st2" x1="42.9" y1="196" x2="368" y2="196"/>
						<line id="XMLID_65_" class="st2" x1="42.9" y1="204.4" x2="368" y2="204.4"/>
						<line id="XMLID_64_" class="st2" x1="42.9" y1="212.8" x2="368" y2="212.8"/>
						<line id="XMLID_63_" class="st2" x1="42.9" y1="221.4" x2="368" y2="221.4"/>
						<line id="XMLID_62_" class="st2" x1="42.9" y1="229.8" x2="368" y2="229.8"/>
						<line id="XMLID_61_" class="st2" x1="42.9" y1="238.2" x2="368" y2="238.2"/>
						<line id="XMLID_60_" class="st2" x1="42.9" y1="246.8" x2="368" y2="246.8"/>
					</g>
				</g>
			</g>
		</g>
		<path id="XMLID_59_" class="st0" d="M212.1,223.3h19.8v0.2c0,5.6,3,6.5,7.7,6.5c3,0,5.8-1.9,5.8-4.9c0-2.1-0.2-4.2-5.1-6.1
			c-1.4-0.5-2.3-0.9-3-1.4c-7.5-3.3-12.6-6.5-15.1-9.6c-2.6-3-4-6.8-4-11.2c0-6.1,2.3-11,6.8-14.4c4.4-3.5,10.7-5.1,18.9-5.1
			s14.4,1.9,19.1,5.6c4.7,3.7,7.2,8.9,7.7,15.6h-19.1c0.2-4.4-2.6-6.8-5.8-6.8c-2.1,0-5.1,1.9-5.1,4.7c0,1.9,0.2,3.7,6.5,7
			c6.1,3,9.1,4.7,13.3,9.6c2.6,3,3.5,6.8,3.7,11c0.5,11-12.8,22.1-24.2,21.9c-9.1,0-15.1-1.9-20.3-5.8
			C214.6,235.9,212.1,230.5,212.1,223.3z"/>
		<g>
			<g>
				<defs>
					<path id="XMLID_58_" d="M212.1,223.3h19.8v0.2c0,5.6,3,6.5,7.7,6.5c3,0,5.8-1.9,5.8-4.9c0-2.1-0.2-4.2-5.1-6.1
						c-1.4-0.5-2.3-0.9-3-1.4c-7.5-3.3-12.6-6.5-15.1-9.6c-2.6-3-4-6.8-4-11.2c0-6.1,2.3-11,6.8-14.4c4.4-3.5,10.7-5.1,18.9-5.1
						s14.4,1.9,19.1,5.6c4.7,3.7,7.2,8.9,7.7,15.6h-19.1c0.2-4.4-2.6-6.8-5.8-6.8c-2.1,0-5.1,1.9-5.1,4.7c0,1.9,0.2,3.7,6.5,7
						c6.1,3,9.1,4.7,13.3,9.6c2.6,3,3.5,6.8,3.7,11c0.5,11-12.8,22.1-24.2,21.9c-9.1,0-15.1-1.9-20.3-5.8
						C214.6,235.9,212.1,230.5,212.1,223.3z"/>
				</defs>
				<clipPath id="XMLID_95_">
					<use xlink:href="#XMLID_58_"  style="overflow:visible;"/>
				</clipPath>
				<g class="st5">
					<g>
						<line id="XMLID_57_" class="st2" x1="42.9" y1="187.4" x2="368" y2="187.4"/>
						<line id="XMLID_56_" class="st2" x1="42.9" y1="196" x2="368" y2="196"/>
						<line id="XMLID_55_" class="st2" x1="42.9" y1="204.4" x2="368" y2="204.4"/>
						<line id="XMLID_54_" class="st2" x1="42.9" y1="212.8" x2="368" y2="212.8"/>
						<line id="XMLID_53_" class="st2" x1="42.9" y1="221.4" x2="368" y2="221.4"/>
						<line id="XMLID_52_" class="st2" x1="42.9" y1="229.8" x2="368" y2="229.8"/>
						<line id="XMLID_51_" class="st2" x1="42.9" y1="238.2" x2="368" y2="238.2"/>
						<line id="XMLID_50_" class="st2" x1="42.9" y1="246.8" x2="368" y2="246.8"/>
					</g>
				</g>
			</g>
		</g>
		<polygon id="XMLID_49_" class="st0" points="265.2,244 283.4,179.3 300.9,179.3 283.1,244 		"/>
		<g>
			<g>
				<defs>
					<polygon id="XMLID_48_" points="265.2,244 283.4,179.3 300.9,179.3 283.1,244 					"/>
				</defs>
				<clipPath id="XMLID_96_">
					<use xlink:href="#XMLID_48_"  style="overflow:visible;"/>
				</clipPath>
				<g class="st6">
					<g>
						<line id="XMLID_47_" class="st2" x1="42.9" y1="187.4" x2="368" y2="187.4"/>
						<line id="XMLID_46_" class="st2" x1="42.9" y1="196" x2="368" y2="196"/>
						<line id="XMLID_45_" class="st2" x1="42.9" y1="204.4" x2="368" y2="204.4"/>
						<line id="XMLID_44_" class="st2" x1="42.9" y1="212.8" x2="368" y2="212.8"/>
						<line id="XMLID_43_" class="st2" x1="42.9" y1="221.4" x2="368" y2="221.4"/>
						<line id="XMLID_42_" class="st2" x1="42.9" y1="229.8" x2="368" y2="229.8"/>
						<line id="XMLID_41_" class="st2" x1="42.9" y1="238.2" x2="368" y2="238.2"/>
						<line id="XMLID_40_" class="st2" x1="42.9" y1="246.8" x2="368" y2="246.8"/>
					</g>
				</g>
			</g>
		</g>
		<polygon id="XMLID_39_" class="st0" points="291.3,244 307.4,179.3 324.6,179.3 330.4,206.8 332.5,206.5 341.6,179.3 360.5,179.3 
			343.5,244 323.7,244 317.4,224.7 314.6,224.7 310.2,244 		"/>
		<g>
			<g>
				<defs>
					<polygon id="XMLID_38_" points="291.3,244 307.4,179.3 324.6,179.3 330.4,206.8 332.5,206.5 341.6,179.3 360.5,179.3 
						343.5,244 323.7,244 317.4,224.7 314.6,224.7 310.2,244 					"/>
				</defs>
				<clipPath id="XMLID_97_">
					<use xlink:href="#XMLID_38_"  style="overflow:visible;"/>
				</clipPath>
				<g class="st7">
					<g>
						<line id="XMLID_37_" class="st2" x1="42.9" y1="187.4" x2="368" y2="187.4"/>
						<line id="XMLID_36_" class="st2" x1="42.9" y1="196" x2="368" y2="196"/>
						<line id="XMLID_35_" class="st2" x1="42.9" y1="204.4" x2="368" y2="204.4"/>
						<line id="XMLID_34_" class="st2" x1="42.9" y1="212.8" x2="368" y2="212.8"/>
						<line id="XMLID_33_" class="st2" x1="42.9" y1="221.4" x2="368" y2="221.4"/>
						<line id="XMLID_32_" class="st2" x1="42.9" y1="229.8" x2="368" y2="229.8"/>
						<line id="XMLID_31_" class="st2" x1="42.9" y1="238.2" x2="368" y2="238.2"/>
						<line id="XMLID_30_" class="st2" x1="42.9" y1="246.8" x2="368" y2="246.8"/>
					</g>
				</g>
			</g>
		</g>
	</g>
	<g>
		<path id="XMLID_29_" class="st8" d="M376.6,201.2c6.5,0,11.9-5.4,11.9-11.9c0-6.5-5.4-11.9-11.9-11.9c-6.5,0-11.9,5.4-11.9,11.9
			C364.7,195.8,370.1,201.2,376.6,201.2z"/>
		<path class="st0" d="M371,196v-13h5.6c1.4,0,2.3,0.2,3,0.5s1.2,0.7,1.6,1.2c0.5,0.7,0.5,1.4,0.5,2.1c0,0.9-0.2,1.9-0.9,2.6
			c-0.5,0.7-1.4,1.2-2.6,1.2c0.5,0.2,1.2,0.7,1.4,1.2c0.5,0.5,0.9,1.2,1.4,2.1l1.6,2.6h-3.3l-1.9-2.8c-0.7-0.9-1.2-1.6-1.4-1.9
			c-0.2-0.2-0.5-0.5-0.7-0.5c-0.2,0-0.7-0.2-1.4-0.2h-0.2v5.6H371V196z M373.8,188.4h1.9c1.2,0,2.1,0,2.3-0.2c0.2,0,0.5-0.2,0.7-0.5
			c0.2-0.2,0.2-0.7,0.2-0.9c0-0.5-0.2-0.7-0.5-1.2c-0.2-0.2-0.5-0.5-0.9-0.5c-0.2,0-0.9,0-1.9,0h-1.9V188.4z"/>
	</g>
</g>
</svg>
