<?xml version="1.0" encoding="utf-8"?>
<!-- Generator: Adobe Illustrator 19.0.0, SVG Export Plug-In . SVG Version: 6.00 Build 0)  -->
<svg version="1.1" id="Capa_1" xmlns="http://www.w3.org/2000/svg" xmlns:xlink="http://www.w3.org/1999/xlink" x="0px" y="0px"
	 viewBox="0 0 425.2 425.2" style="enable-background:new 0 0 425.2 425.2;" xml:space="preserve">
<style type="text/css">
	.st0{fill:#E52629;}
</style>
<g>
	<path id="XMLID_43_" class="st0" d="M261.5,192.1L261.5,192.1H213l0,0c-3.2,0-5.7,2.5-5.7,5.5v4h24.5v31.3h10.8v-31.3h24.9v-4
		C267.2,194.6,264.6,192.1,261.5,192.1z"/>
	<path class="st0" d="M399.6,197.6c0-3-2.7-5.5-5.7-5.5l0,0h-7l0,0c-2.1,0-3.8,1.1-4.9,2.7L368,219L354.1,195
		c-0.9-1.7-2.8-2.7-4.9-2.7l0,0H342l0,0c-0.2,0-0.2,0-0.4,0v8.9h4.9l2.5,4.2l0,0l14.2,24.7l0,0c0.8,1.7,2.7,3,4.7,3
		c2.1,0,4-1.3,4.7-3l0,0l14.2-24.7l0,0l1.9-3.4v30.9h10.8v-15V201v-0.9V197.6L399.6,197.6L399.6,197.6z M341.4,232.7v-25.4h5.3v25.4
		H341.4z M341.4,192.1c-3,0.2-5.3,2.7-5.3,5.5v3.4h5.3V192.1L341.4,192.1z M341.4,207.5v25.4h-5.3v-15l0,0v-10.4H341.4z"/>
	<path id="XMLID_38_" class="st0" d="M190.8,231.8c0.9,0.8,2.1,1.1,3.4,1.1l0,0h2.5l0,0c3.2,0,5.7-2.5,5.7-5.5l0,0v-4.9v-30.2h-10.8
		V208v12l-36.8-26.7l0,0c-0.9-0.8-2.1-1.1-3.4-1.1l0,0h-2.8l0,0c-3.2,0-5.7,2.5-5.7,5.5v4.7l0,0v0.8v29.8h10.8v-15.7v-12.5
		L190.8,231.8z"/>
	<path id="XMLID_37_" class="st0" d="M117.2,194.8c-0.9-1.5-2.8-2.7-4.9-2.7l0,0h-5.7l0,0c-2.1,0-4,1.1-4.9,2.7l0,0l-3.8,6.3h12.9
		l3.6,6.4H94l-15.2,25.2h10.4h1.3h0.2l8.7-15.7h20.3l8.7,15.7h1.3h10.4L117.2,194.8z"/>
	<path id="XMLID_36_" class="st0" d="M320.9,192.1h10.8v30.5c0,5.7-4.7,10.2-10.6,10.2h-38.9c-5.9,0-10.6-4.6-10.6-10.2v-30.5h10.8
		v18.8v6.1v3.4c0,1.7,1.3,3,3.2,3h2.8H301h1.3h12.5h2.8c1.7,0,3.2-1.3,3.2-3V192.1z"/>
	<path id="XMLID_35_" class="st0" d="M81.9,194.6c-2.3-1.5-5.1-2.3-8.5-2.3h-0.2H38.1H25.5v8.9h49.5v6.4H25.5v12.9v12.3h10.8v-13.1
		v-3.2H73c4,0,7-0.6,9.3-1.9c2.3-1.3,3.2-3.8,3.2-6.8l0,0l0,0l0,0v-5.5l0,0C85.5,198.7,84.4,196.1,81.9,194.6z"/>
	<path id="XMLID_34_" class="st0" d="M261.5,192.1L261.5,192.1H213l0,0c-3.2,0-5.7,2.5-5.7,5.5v4h24.5v31.3h10.8v-31.3h24.9v-4
		C267.2,194.4,264.6,192.1,261.5,192.1z"/>
	<path class="st0" d="M399.6,197.6c0-3-2.7-5.5-5.7-5.5l0,0h-7l0,0c-2.1,0-3.8,1.1-4.9,2.7L368,219L354.1,195
		c-0.9-1.7-2.8-2.7-4.9-2.7l0,0H342c-0.2,0-0.2,0-0.4,0v8.9h4.9l2.3,4.2l0,0l14.2,24.7l0,0c0.8,1.7,2.7,3,4.7,3c2.1,0,4-1.3,4.7-3
		l0,0l14.2-24.7l0,0l1.9-3.4v30.9h10.8v-15V201v-0.9L399.6,197.6L399.6,197.6L399.6,197.6z M341.4,232.7v-25.4h5.3v25.4H341.4z
		 M341.4,192.1c-3,0.2-5.3,2.7-5.3,5.5v3.4h5.3V192.1L341.4,192.1z M341.4,207.5v25.4h-5.3v-15l0,0v-10.4H341.4z"/>
	<path id="XMLID_29_" class="st0" d="M190.8,231.8c0.9,0.8,2.1,1.1,3.4,1.1l0,0h2.5l0,0c3.2,0,5.7-2.5,5.7-5.5l0,0v-4.9v-30.2h-10.8
		V208v12l-36.8-26.7l0,0c-0.9-0.8-2.1-1.1-3.4-1.1l0,0h-2.8l0,0c-3.2,0-5.7,2.5-5.7,5.5v4.7l0,0v0.8v29.8h10.8v-15.7v-12.5
		L190.8,231.8z"/>
	<path id="XMLID_28_" class="st0" d="M117.2,194.8c-0.9-1.5-2.8-2.7-4.9-2.7l0,0h-5.7l0,0c-2.1,0-4,1.1-4.9,2.7l-3.8,6.3h13.1
		l3.6,6.4H94l-15.2,25.2h10.2h1.3h0.2l8.7-15.7h20.3l8.7,15.7h1.3h10.4L117.2,194.8z"/>
	<path id="XMLID_27_" class="st0" d="M320.9,192.1h10.8v30.5c0,5.7-4.7,10.2-10.6,10.2h-38.9c-5.9,0-10.6-4.6-10.6-10.2v-30.5h10.8
		v18.8v6.1v3.4c0,1.7,1.3,3,3.2,3h2.8H301h1.3h12.5h2.8c1.7,0,3.2-1.3,3.2-3V192.1z"/>
</g>
</svg>
