<?xml version="1.0" encoding="utf-8"?>
<!-- Generator: Adobe Illustrator 19.0.0, SVG Export Plug-In . SVG Version: 6.00 Build 0)  -->
<svg version="1.1" id="Capa_1" xmlns="http://www.w3.org/2000/svg" xmlns:xlink="http://www.w3.org/1999/xlink" x="0px" y="0px"
	 viewBox="0 0 425.2 425.2" style="enable-background:new 0 0 425.2 425.2;" xml:space="preserve">
<style type="text/css">
	.st0{fill-rule:evenodd;clip-rule:evenodd;}
	.st1{fill-rule:evenodd;clip-rule:evenodd;fill:#FFFFFF;}
</style>
<g>
	<path id="XMLID_39_" class="st0" d="M212.6,154.6c86.7,0,157.5,26.1,157.5,58c0,31.9-70.7,58-157.5,58c-86.7,0-157.5-26.1-157.5-58
		C55.1,180.7,125.9,154.6,212.6,154.6z"/>
	<ellipse id="XMLID_38_" class="st0" cx="212.6" cy="212.5" rx="154.4" ry="48.8"/>
	<path id="XMLID_37_" class="st1" d="M72.4,198.7c10.3,4.3,27.8,2.5,55.7-9.8c5.3-1,6.5,2.3,7,6.3c20.9-15.4,49.1-17.5,49.1-6.3
		c13.9-9.1,24.3-10.8,33-9.3c8.1,2.3,10.2,9.9,6.7,19.1l3.2,0l-2.9,7.2l-4,0c-0.1,0.1-0.1,0.2-0.2,0.3c-5.1,7.9-9.7,18.6-13,32
		h-17.6c4.5-11.7,11.6-21.9,20-32.4l-4.6-0.1l2.2-6.7l8.1-0.1c0.2-0.3,0.5-0.6,0.7-0.9c8.9-10.6-8.7-16.4-25.3-2.8
		c-10.2,14-19,28.3-26.9,42.9H145c8.8-13.7,16.6-27.4,29.7-41c5.2-6.7,0.6-9-11.9-5.8c-13.2,2.9-28,14.7-44,46.8H99
		c8.4-13.4,17.6-25.9,28.4-36.8c3.2-4.4,1.3-5.5-5-2.6c-17.7,10-37.7,14.4-59.3,14.8c1.8,22.3,68.4,40.3,149.8,40.3
		c82.5,0,149.8-18.5,149.8-41.3c0-22.7-67.3-41.3-149.8-41.3c-65.4,0-121.2,11.6-141.6,27.8c0,0,0,0,0,0
		C71.6,199,72,198.8,72.4,198.7z"/>
	<path id="XMLID_36_" class="st0" d="M235.5,199h12.7c3.1-0.1,7.6,4,6.4,7.5l-2.2,6.5c-0.9,2.4-3.6,4.9-5.8,4.9l-15.4,0.2
		c-2.3,0-2.1,4.3-0.7,4.2l16.4,0.1l-2.9,7.5l-17.7,0c-4.4-0.3-7.7-4.4-5.5-10l7.1-16.8C229.1,200.9,232.7,198.9,235.5,199z"/>
	<path id="XMLID_35_" class="st0" d="M327.9,199.3c-4,0.2-6.7,1.4-7.9,4.9l-6.8,17.8c-1.1,3.7,2,7.6,5.5,8h15.4
		c2.1-0.1,3.9-1.5,5.3-4.2l6.8-17.2c1.2-2.7-1.2-8.6-5.1-8.8L327.9,199.3z"/>
	<path id="XMLID_34_" class="st1" d="M234.1,210.6l11.1-0.2c2.2,0,3.1-5.1,0-5.1h-7.5C234.3,205.2,231.4,210,234.1,210.6z"/>
	<path id="XMLID_33_" class="st0" d="M291.3,198.7L279,229.9l9.3,0.1l7.3-18.9c2.9-4.9,11.7-4.8,9.6,0.5l-7.3,18.5h8.7l10.1-24.8
		c2-4.1-6.3-9.8-17.7-2.8l1.1-3.7L291.3,198.7z"/>
	<path id="XMLID_32_" class="st0" d="M260.4,198.7l-12.3,31.2l9.3,0.1l7.3-18.9c2.9-4.9,11.7-4.8,9.6,0.5l-7.3,18.5h8.7l10.1-24.8
		c2-4.1-6.3-9.8-17.7-2.8l1.1-3.7L260.4,198.7z"/>
	<path id="XMLID_31_" class="st1" d="M326.8,208.9l-4.2,10.5c-0.7,1.9,0.2,3.4,2.1,3.5l5.3-0.2c1,0.1,1.8-0.2,2.4-1.4l4.3-10.7
		c0.6-2,0.1-3.2-1.7-3.1l-5.9,0.2C328.2,207.5,327.5,207.8,326.8,208.9z"/>
	<g>
		<path id="XMLID_30_" class="st0" d="M354.3,208.1c1.1,0,2.1,0.3,3.1,0.9c1,0.6,1.8,1.4,2.3,2.5c0.6,1.1,0.8,2.2,0.8,3.3
			c0,1.1-0.3,2.2-0.8,3.3c-0.5,1.1-1.3,1.9-2.3,2.5c-1,0.6-2,0.9-3.1,0.9c-1.1,0-2.1-0.3-3.1-0.9c-1-0.6-1.8-1.4-2.3-2.5
			c-0.6-1.1-0.8-2.1-0.8-3.3c0-1.2,0.3-2.3,0.8-3.3c0.6-1.1,1.3-1.9,2.3-2.5C352.2,208.4,353.3,208.1,354.3,208.1z"/>
		<path id="XMLID_29_" class="st1" d="M354.3,208.7c1,0,1.9,0.3,2.8,0.8c0.9,0.5,1.6,1.3,2.1,2.2c0.5,1,0.8,2,0.8,3c0,1-0.2,2-0.8,3
			c-0.5,1-1.2,1.7-2.1,2.2c-0.9,0.5-1.8,0.8-2.8,0.8c-1,0-1.9-0.3-2.8-0.8c-0.9-0.5-1.6-1.3-2.1-2.2c-0.5-1-0.8-1.9-0.8-3
			c0-1,0.3-2,0.8-3c0.5-1,1.2-1.7,2.1-2.2C352.4,209,353.4,208.7,354.3,208.7z"/>
		<path id="XMLID_28_" class="st0" d="M351.6,218.4v-7.1h2.3c0.8,0,1.4,0.1,1.7,0.2c0.4,0.1,0.6,0.4,0.8,0.7c0.2,0.3,0.3,0.7,0.3,1
			c0,0.5-0.2,1-0.5,1.4c-0.4,0.4-0.8,0.6-1.4,0.7c0.2,0.1,0.4,0.2,0.6,0.4c0.3,0.3,0.6,0.8,1,1.4l0.8,1.4h-1.3l-0.6-1.1
			c-0.5-0.9-0.8-1.4-1.1-1.7c-0.2-0.2-0.5-0.2-0.9-0.2h-0.6v3H351.6z"/>
		<path id="XMLID_27_" class="st1" d="M352.6,214.4h1.3c0.6,0,1.1-0.1,1.3-0.3c0.2-0.2,0.3-0.5,0.3-0.8c0-0.2-0.1-0.4-0.2-0.6
			c-0.1-0.2-0.3-0.3-0.5-0.4c-0.2-0.1-0.6-0.1-1.1-0.1h-1.2V214.4z"/>
	</g>
</g>
</svg>
