<?xml version="1.0" encoding="utf-8"?>
<!-- Generator: Adobe Illustrator 19.0.0, SVG Export Plug-In . SVG Version: 6.00 Build 0)  -->
<svg version="1.1" id="Capa_1" xmlns="http://www.w3.org/2000/svg" xmlns:xlink="http://www.w3.org/1999/xlink" x="0px" y="0px"
	 viewBox="0 0 425.2 425.2" style="enable-background:new 0 0 425.2 425.2;" xml:space="preserve">
<style type="text/css">
	.st0{fill:#1B94D2;}
</style>
<g>
	<path id="XMLID_31_" class="st0" d="M44.6,247.7h42.2c9.8-0.2,21.4-8.1,21.4-19.1l-0.2-47.3c0.2-7.8-17.4-8.3-17.6,0v46.4
		c-0.4,3.8-4.2,5.3-7.6,5.3H44.6C35.9,233.3,33.6,246.4,44.6,247.7z"/>
	<path class="st0" d="M127.1,246.6l11.5-15.9h47.9l12.1,16.5c6.4,7.4,18.9-1.7,14.2-9.1l-42.6-60.2c-3.4-3.6-10.8-3.8-14.4,0
		l-40.5,60.4C110.3,245,120.3,253.2,127.1,246.6L127.1,246.6z M150.2,215.1l12.7-18.4l12.1,18.4H150.2z"/>
	<path id="XMLID_28_" class="st0" d="M217.2,192.4v39.4c1.3,10.4,13.8,16.1,24.6,16.5h49.8c8.3-0.2,7.6-14.6,0-15.1h-49
		c-3.6,0-7.6-2.3-8.3-5.5v-31.4c0.4-4,5.5-5.1,9.5-5.1h47.7c8.5-0.4,7.6-14.8,0-14.8h-52.4C228.4,176.9,218.1,184.5,217.2,192.4z"/>
	<path id="XMLID_27_" class="st0" d="M307.3,192.4v39.4c1.3,10.4,13.8,16.1,24.6,16.5h49.8c8.3-0.2,7.6-14.6,0-15.1h-49
		c-3.6,0-7.6-2.3-8.3-5.5v-31.4c0.4-4,5.5-5.1,9.5-5.1H382c8.5-0.4,7.6-14.8,0-14.8h-52.4C318.6,176.9,308.2,184.5,307.3,192.4z"/>
</g>
</svg>
