<?xml version="1.0" encoding="utf-8"?>
<!-- Generator: Adobe Illustrator 19.0.0, SVG Export Plug-In . SVG Version: 6.00 Build 0)  -->
<svg version="1.1" id="Capa_1" xmlns="http://www.w3.org/2000/svg" xmlns:xlink="http://www.w3.org/1999/xlink" x="0px" y="0px"
	 viewBox="0 0 425.2 425.2" style="enable-background:new 0 0 425.2 425.2;" xml:space="preserve">
<style type="text/css">
	.st0{fill:url(#XMLID_64_);}
	.st1{fill:#010202;}
	.st2{fill:#FFFFFF;}
</style>
<g>
	
		<linearGradient id="XMLID_64_" gradientUnits="userSpaceOnUse" x1="212.5984" y1="378.9306" x2="212.5984" y2="76.2085" gradientTransform="matrix(1 0 0 -1 0 425.4168)">
		<stop  offset="0" style="stop-color:#DC9318"/>
		<stop  offset="6.000000e-002" style="stop-color:#DC9318"/>
		<stop  offset="0.5" style="stop-color:#EBA517"/>
		<stop  offset="1" style="stop-color:#FDC848"/>
	</linearGradient>
	<path id="XMLID_62_" class="st0" d="M375.1,156c-107.3-11.7-215.6-12.6-325,0.5l29.3,105.9c1.4,6.7,3.1,7.6,6.9,8.1
		c37.1,4.5,59,7.9,109.4,7.9c50.2,0,104.7-2.6,141.8-7.4c3.8-0.5,5.5-1.7,6.9-8.1L375.1,156z"/>
	<path id="XMLID_61_" class="st1" d="M212.1,176.2c-50.7,0-89.9,1.7-126.1,6.9l14.8,55.2c36.2,5.2,60.7,6.9,111.3,6.9
		s76.8-1.9,113.3-6.9l14.8-55.2C304,177.9,263,176.2,212.1,176.2z"/>
	<g>
		<path class="st2" d="M306.1,227.6c-0.2,0.2-0.7,0.5-1.2,0.5s-1-0.2-1.2-0.5c-0.2-0.2-0.5-0.7-0.5-1.2c0-0.5,0.2-1,0.5-1.2
			c0.2-0.2,0.7-0.5,1.2-0.5s1,0.2,1.2,0.5c0.2,0.2,0.5,0.7,0.5,1.2C306.8,226.6,306.6,227.1,306.1,227.6L306.1,227.6z M304,225.2
			L304,225.2c-0.2,0.2-0.5,0.7-0.5,1c0,0.5,0.2,0.7,0.5,1s0.7,0.5,1,0.5c0.5,0,0.7-0.2,1-0.5c0.2-0.2,0.5-0.7,0.5-1
			c0-0.5-0.2-0.7-0.5-1c-0.2-0.2-0.7-0.5-1-0.5C304.4,224.7,304.2,225,304,225.2L304,225.2z M304.2,227.1h0.5v-0.7l0,0h0.2h0.2
			c0,0,0.2,0,0.2,0.2c0,0,0,0,0,0.2v0.2h0.5l0,0l0,0l0,0v-0.2c0-0.2,0-0.2-0.2-0.5c0,0-0.2,0-0.2-0.2c0.2,0,0.2,0,0.2-0.2
			c0,0,0.2-0.2,0.2-0.5c0-0.2,0-0.5-0.2-0.5c0,0-0.2,0-0.5,0h-0.5c-0.2,0-0.5,0-0.5,0L304.2,227.1L304.2,227.1L304.2,227.1z
			 M305.1,225.7L305.1,225.7h-0.2h-0.2v0.5h0.2c0.2,0,0.2,0,0.2,0C305.1,226.2,305.1,225.9,305.1,225.7L305.1,225.7z"/>
		<path class="st2" d="M232.1,215.7l5.2-13.3h6.9l1.7,13.3l5.9-13.3h9.3l-12.6,24.3h-7.9l-1.7-13.3h-0.2l-5.2,13.3h-7.9l-5.5-24.3
			h9.3L232.1,215.7L232.1,215.7z M302.3,208.8L302.3,208.8c-1.2-0.7-2.9-1.2-4.5-1.2c-1,0-2.9,0.5-2.9,1.7c-0.2,1.7,2.4,1.9,3.6,2.1
			c3.8,0.7,6.7,2.6,5.9,7.1c-1,6.4-7.1,9-12.8,9c-3.3,0-6.4-0.7-9-2.6l2.9-5.2c1.7,1.2,5.2,1.7,7.4,1.7c1.2,0,2.9-0.5,3.1-1.9
			c0.2-1.9-2.4-1.9-5-2.6c-2.6-0.7-5-2.1-4.3-6.4c1-5.9,6.7-8.6,11.9-8.6c2.9,0,5.5,0.5,7.6,1.7L302.3,208.8L302.3,208.8z
			 M201.2,214.5L201.2,214.5c-0.7,3.6,0.7,5.9,4.3,5.9c3.3,0,5.7-2.1,6.7-5.9c0.7-3.3-0.7-6.2-4.3-6.2
			C204.5,208.6,201.9,210.7,201.2,214.5L201.2,214.5z M220.9,214.5c1.2-8.3-4.8-12.8-12.4-12.8s-15,4.8-16.2,12.8
			c-1.2,8.3,4.8,12.8,12.4,12.8C212.4,227.6,219.7,222.8,220.9,214.5L220.9,214.5L220.9,214.5z M180,232.1L180,232.1l5.9-37.4h8.1
			l-5.9,37.4H180L180,232.1z M169.8,226.6h8.1l5.9-37.4h-8.1L169.8,226.6L169.8,226.6L169.8,226.6z M277.1,211.4L277.1,211.4
			c0-2.6-1.9-4-4.3-4c-2.6,0-5,1.4-6.2,4H277.1L277.1,211.4z M265.9,215.9h18.8l0.2-1c1.4-8.3-3.1-13.3-11.7-13.3
			c-8.1,0-14.5,4.8-15.9,12.8c-1.4,8.3,4,12.8,12.4,12.8c5.2,0,11.2-2.6,14-8.3h-8.3c-1.4,1.7-3.1,2.1-5,2.1
			C266.8,221.4,265.2,219.5,265.9,215.9L265.9,215.9L265.9,215.9z M162.6,211.4L162.6,211.4c0-2.6-1.9-4-4.5-4s-5,1.4-6.2,4H162.6
			L162.6,211.4z M151.2,215.9L151.2,215.9c-0.5,3.6,1,5.5,4.8,5.5c1.9,0,3.6-0.7,5-2.1h8.3c-2.9,5.7-8.8,8.3-14,8.3
			c-8.3,0-13.8-4.5-12.4-12.8c1.4-8.1,7.9-12.8,15.9-12.8c8.6,0,13.1,5.2,11.7,13.3l-0.2,1h-19V215.9z M135,197.8h12.6l1.2-7.6
			h-23.1l-6.4,36.4h10.5l2.6-14.8h9.8l1.2-7.4h-9.8L135,197.8L135,197.8z"/>
	</g>
	<g>
		<polygon id="XMLID_45_" class="st1" points="189.3,252.3 189.3,255.9 192.6,255.9 192.6,256.6 189.3,256.6 189.3,261.6 
			188.6,261.6 188.6,251.6 192.6,251.6 192.6,252.3 		"/>
		<path id="XMLID_44_" class="st1" d="M202.4,251.6h0.7v6.2c0,1,0,1.9-0.7,2.6c-0.7,0.7-1.7,1.2-2.6,1.2c-1,0-2.1-0.5-2.6-1.2
			c-0.7-1-0.7-1.7-0.7-2.6v-6.2h0.7v5.9c0,1,0,1.9,0.5,2.6c0.5,0.7,1.4,1,2.1,1c0.7,0,1.7-0.2,2.1-1c0.5-0.7,0.5-1.7,0.5-2.6V251.6z
			"/>
		<polygon id="XMLID_43_" class="st1" points="216.2,262.1 207.8,253 207.8,261.6 207.1,261.6 207.1,251.6 215.5,260.4 215.5,251.6 
			216.2,251.6 		"/>
		<path id="XMLID_42_" class="st1" d="M228.1,253.8c-0.7-1-2.1-1.7-3.3-1.7c-2.4,0-4.5,2.1-4.5,4.5c0,1.2,0.5,2.4,1.4,3.1
			c0.7,0.7,1.9,1.4,3.1,1.4s2.6-0.7,3.3-1.4v1c-1,0.7-2.1,1.2-3.3,1.2c-2.9,0-5.2-2.4-5.2-5c0-2.9,2.4-5.2,5.2-5.2
			c1.2,0,2.4,0.5,3.3,1.2V253.8z"/>
		<rect id="XMLID_41_" x="231.9" y="251.6" class="st1" width="0.7" height="10"/>
		<path class="st1" d="M246.4,256.6c0,2.9-2.4,5-5.2,5s-5.2-2.4-5.2-5c0-2.9,2.4-5,5.2-5S246.4,254,246.4,256.6L246.4,256.6z
			 M236.9,256.6L236.9,256.6c0,2.4,2.1,4.5,4.5,4.5s4.5-2.1,4.5-4.5c0-2.4-2.1-4.5-4.5-4.5C238.8,252.1,236.9,254.2,236.9,256.6z"/>
		<polygon id="XMLID_38_" class="st1" points="259,262.1 250.7,253 250.7,261.6 250,261.6 250,251.6 258.3,260.4 258.3,251.6 
			259,251.6 		"/>
		<path class="st1" d="M264,258.5l-1.4,3.3h-0.7l4.3-10.2l4,10.2h-0.7l-1.4-3.3H264L264,258.5z M266.4,253L266.4,253l-1.9,4.8h3.8
			L266.4,253z"/>
		<polygon id="XMLID_35_" class="st1" points="286.6,255.4 286.6,255.4 284.5,261.8 283.7,261.8 281.6,255.4 281.6,255.4 
			280.6,261.6 278.7,261.6 280.4,251.4 281.8,251.4 284.2,258 286.6,251.4 288,251.4 289.4,261.6 287.5,261.6 		"/>
		<polygon id="XMLID_34_" class="st1" points="294.2,253.5 294.2,255.7 297.3,255.7 297.3,257.3 294.2,257.3 294.2,259.9 
			297.5,259.9 297.5,261.6 292.3,261.6 292.3,251.6 297.5,251.6 297.5,253.5 		"/>
		<path id="XMLID_33_" class="st1" d="M304.4,258.3c0,1,0,1.7-0.5,2.6c-0.5,0.7-1.4,1.2-2.1,1.2c-0.7,0-1.4-0.5-1.9-1l1.2-1.4
			c0,0.2,0.5,0.7,0.7,0.7c1,0,0.7-1.7,0.7-2.4v-6.2h1.9L304.4,258.3L304.4,258.3z"/>
		<path class="st1" d="M312.3,261.8c-3.1,0-5-2.4-5-5.2c0-2.9,1.9-5.2,5-5.2c2.9,0,5,2.4,5,5.2C317.3,259.7,315.4,261.8,312.3,261.8
			L312.3,261.8z M312.3,253.3L312.3,253.3c-1.9,0-2.9,1.7-2.9,3.3c0,1.4,0.7,3.3,2.9,3.3c2.1,0,2.9-1.9,2.9-3.3
			C315.1,254.9,314.2,253.3,312.3,253.3z"/>
		<path class="st1" d="M326.8,261.6h-2.4l-2.4-4l0,0v4h-1.9v-10h2.6c1.9,0,3.3,1,3.3,3.1c0,1.2-0.7,2.6-2.1,2.9L326.8,261.6
			L326.8,261.6z M322,256.4L322,256.4h0.2c1,0,1.9-0.2,1.9-1.4s-0.7-1.4-1.9-1.4H322V256.4z"/>
		<polygon id="XMLID_28_" class="st1" points="327.5,252.1 327,252.1 327,251.6 328.7,251.6 328.7,252.1 328.2,252.1 328.2,254.2 
			327.5,254.2 		"/>
		<path id="XMLID_27_" class="st1" d="M331.1,253.3c0-0.2,0-0.7,0-1l0,0c0,0.2-0.2,0.7-0.2,1l-0.2,1h-0.5l-0.2-1
			c0-0.2-0.2-0.7-0.2-1l0,0c0,0.2,0,0.7,0,1v1h-0.5l0.2-2.4h0.7l0.2,0.7c0,0.2,0.2,0.5,0.2,1l0,0c0-0.2,0.2-0.7,0.2-1l0.2-0.7h0.7
			l0.2,2.4h-0.5L331.1,253.3z"/>
	</g>
</g>
</svg>
