<?xml version="1.0" encoding="utf-8"?>
<!-- Generator: Adobe Illustrator 19.0.0, SVG Export Plug-In . SVG Version: 6.00 Build 0)  -->
<svg version="1.1" id="Capa_1" xmlns="http://www.w3.org/2000/svg" xmlns:xlink="http://www.w3.org/1999/xlink" x="0px" y="0px"
	 viewBox="0 0 425.2 425.2" style="enable-background:new 0 0 425.2 425.2;" xml:space="preserve">
<style type="text/css">
	.st0{fill:#1A2541;}
	.st1{fill:#1CBAE1;}
	.st2{fill:#6BB442;}
	.st3{fill:#006DA5;}
	.st4{fill:#09958E;}
	.st5{fill:#00466E;}
	.st6{fill:#427C31;}
</style>
<g>
	<path id="XMLID_41_" class="st0" d="M173.1,231.2c-7,0-24.4,0.9-25.7,0.9c-3,0-5,2.2-5,5.2v49.6c0,3,2,5.2,5.2,5.2h2.4
		c3,0,5.2-2,5.2-5.2v-43.1c3.5-0.2,11.5-0.4,15.7-0.4c3,0,6.7,1.1,6.7,9.4v34.4c0,3,2.2,5.2,5.2,5.2h2.4c3,0,5.2-2,5.2-5.2v-34.4
		C190.3,242.7,187.2,231.2,173.1,231.2z"/>
	<path id="XMLID_40_" class="st0" d="M100.4,252.3c-3.7-3.5-8.5-5.2-12.4-6.3l-9.8-2.8c-6.7-2-9.8-3.9-9.8-10
		c0-7.2,4.1-10.4,13.3-10.4h2.4c5.2,0,10.4,1.3,13.9,2.2l0,0c0.7,0.2,1.3,0.2,1.7,0.2c2.4,0,3.7-1.5,3.7-3.9v-2.6
		c0-1.7,0-4.6-3.5-5.4c-3.9-1.3-10.4-2.6-16.1-2.6h-2.4c-15.9,0-26.8,9.1-26.8,22.6c0,11.5,6.1,18.9,18.3,22.4l10.2,2.8
		c6.5,1.7,9.8,3.9,9.8,10.9c0,7.6-4.6,11.3-14.1,11.3h-3.3c-5.7,0-13.3-1.7-16.1-2.6h-0.2c-0.7-0.2-1.3-0.2-1.7-0.2
		c-2.2,0-3.7,1.5-3.7,3.9v3c0,1.5,0,4.6,3.5,5.4c2.6,0.9,11.8,2.8,18.5,2.8h3.3c17,0,27.4-8.9,27.4-23.5
		C106.7,261.9,104.5,256.5,100.4,252.3z"/>
	<path class="st0" d="M285.2,231.2c-16.5,0-26.3,11.1-26.3,30c0,14.4,4.6,31.6,26.3,31.6c8.7,0,15.2-2.8,19.8-8.7
		c4.4-5.4,6.5-13.1,6.5-22.9C311.5,241.9,302.2,231.2,285.2,231.2L285.2,231.2z M285.2,280.8c-5.9,0-13.5-2-13.5-19.6
		c0-12.8,3.9-18.1,13.5-18.1s13.5,5.2,13.5,18.1C298.7,278.7,291.1,280.8,285.2,280.8z"/>
	<path id="XMLID_37_" class="st0" d="M125.4,211.2H123c-3,0-5.2,2-5.2,5.2v3.3c0,3,2.2,5.2,5.2,5.2h2.4c3,0,5.2-2,5.2-5.2v-3.3
		C130.6,213.4,128.7,211.2,125.4,211.2z"/>
	<path id="XMLID_36_" class="st0" d="M125.4,232.1h-2.6c-3,0-5,2-5,5.2v49.6c0,3,2.2,5.2,5.2,5.2h2.4c3,0,5.2-2,5.2-5.2v-49.6
		C130.6,234,128.7,232.1,125.4,232.1z"/>
	<path id="XMLID_35_" class="st0" d="M353.3,231.2c-4.1,0-11.8,0.2-18.1,0.4v-15.2c0-3-2-5.2-5.2-5.2h-2.6c-3,0-5,2-5,5.2v70.3
		c0,3,2,5.2,5.2,5.2h2.4c3,0,5.2-2,5.2-5.2v-43.1c3.5-0.2,11.5-0.4,15.7-0.4c3,0,6.7,1.1,6.7,9.4v34.4c0,3,2.2,5.2,5.2,5.2h2.4
		c3,0,5.2-2,5.2-5.2v-34.4C370.3,242.7,367.2,231.2,353.3,231.2z"/>
	<path class="st0" d="M236.4,244.5V276c-4.1,1.7-12.6,4.8-16.3,4.8c-3,0-6.7-1.1-6.7-9.4v-18.3c0-8.3,3.5-9.4,6.7-9.4
		C224.2,243.8,232.7,244.3,236.4,244.5L236.4,244.5z M236.4,286.7c0,3,2.2,5.2,5.2,5.2h2.4c3,0,5.2-2.2,5.2-5.2v-70.3
		c0-3-2.2-5.2-5.2-5.2h-2.4c-3,0-5.2,2.2-5.2,5.2v16.1c-4.1-0.2-13.3-0.4-18.7-0.4c-14.1,0-17.2,11.5-17.2,21.1v18.3
		c0,9.6,3,21.1,17.2,21.1C223.2,292.6,231.9,288.5,236.4,286.7z"/>
	<polygon id="XMLID_32_" class="st1" points="246.2,132.2 333.1,162.9 371.4,147.4 	"/>
	<polygon id="XMLID_31_" class="st2" points="285.4,215.1 283,145.2 246.2,132.2 	"/>
	<polygon id="XMLID_30_" class="st3" points="371.4,147.4 285.4,215.1 284.3,182.7 	"/>
	<polygon id="XMLID_29_" class="st4" points="371.4,147.4 324.6,159.8 333.1,162.9 	"/>
	<polygon id="XMLID_28_" class="st5" points="285.4,215.1 284.3,182.7 296.5,177.7 	"/>
	<polygon id="XMLID_27_" class="st6" points="246.2,132.2 283,145.2 283.2,156.8 	"/>
</g>
</svg>
